<?xml version="1.0" standalone="yes"?>
<svg xmlns="http://www.w3.org/2000/svg" width="2005" height="650">
<path style="fill:#9aabc4; stroke:none;" d="M1129 169L1129 170L1146 170L1129 169M1117 170L1117 171L1121 171L1117 170z"/>
<path style="fill:#5975b0; stroke:none;" d="M1121 170L1121 171L1124 171L1121 170z"/>
<path style="fill:#153b6b; stroke:none;" d="M1124 170.424C1092.27 174.593 1064.18 182.872 1038 202.156C966.281 254.981 957.902 365.361 1018.09 430C1054.29 468.88 1108.01 485.016 1160 478.715C1182.78 475.953 1205.59 468.239 1225 455.947C1315.42 398.686 1321.81 264.796 1235 200.884C1218.5 188.738 1199.85 180.113 1180 175.127C1162.29 170.678 1142.23 168.029 1124 170.424z"/>
<path style="fill:#5975b0; stroke:none;" d="M1151 170L1151 171L1154 171L1151 170z"/>
<path style="fill:#9aabc4; stroke:none;" d="M1154 170L1154 171L1158 171L1154 170M1109 171L1109 172L1112 172L1109 171z"/>
<path style="fill:#5975b0; stroke:none;" d="M1112.67 171.333L1113.33 171.667L1112.67 171.333M1161.67 171.333L1162.33 171.667L1161.67 171.333z"/>
<path style="fill:#9aabc4; stroke:none;" d="M1163.67 171.333L1164.33 171.667L1163.67 171.333M1104.67 172.333L1105.33 172.667L1104.67 172.333z"/>
<path style="fill:#5975b0; stroke:none;" d="M1106 172L1107 173L1106 172M1167.67 172.333L1168.33 172.667L1167.67 172.333z"/>
<path style="fill:#9aabc4; stroke:none;" d="M1169.67 172.333L1170.33 172.667L1169.67 172.333M384 173L384 174L432 174L432 476L383 476L383 477L433 477L433 253L433 196L431.972 174.603L419 173L384 173M1099.67 173.333L1100.33 173.667L1099.67 173.333z"/>
<path style="fill:#5975b0; stroke:none;" d="M1101 173L1102 174L1101 173M1173 173L1174 174L1173 173z"/>
<path style="fill:#9aabc4; stroke:none;" d="M1174.67 173.333L1175.33 173.667L1174.67 173.333M1309 173L1309 174L1363 174L1345 173L1309 173M1568 173L1568 174L1622 175L1608 173L1568 173z"/>
<path style="fill:#5975b0; stroke:none;" d="M383 174L383 476L384 476L384 263L384 201L383 174z"/>
<path style="fill:#153b6b; stroke:none;" d="M384 174L384 476L432 476L432 174L384 174z"/>
<path style="fill:#f3971c; stroke:none;" d="M480 476L523 477C526.523 460.316 524 441.015 524 424L524 321C524 308.193 522.676 294.597 525.286 282C530.512 256.771 548.572 234.873 572 224.312C606.726 208.657 649.125 221.603 670.329 253C689.569 281.49 683.272 315.494 684.026 347.985C684.718 377.851 692.551 406.34 711.449 430C761.61 492.8 863.165 491.559 909.964 425C934.195 390.538 933 353.202 933 313L933 174L889 174L889 312C889 336.442 892.462 363.258 881.68 386C856.398 439.326 782.592 448.681 746.015 402C719.812 368.56 730.59 327.131 727.911 288C725.453 252.11 706.677 219.162 678 197.665C614.508 150.071 516.666 177.18 488.425 252C477.581 280.73 480 310.856 480 341L480 476z"/>
<path style="fill:#9aabc4; stroke:none;" d="M1095 174L1096 175L1095 174z"/>
<path style="fill:#5975b0; stroke:none;" d="M1096.67 174.333L1097.33 174.667L1096.67 174.333M1177 174L1178 175L1177 174z"/>
<path style="fill:#9aabc4; stroke:none;" d="M1178.67 174.333L1179.33 174.667L1178.67 174.333z"/>
<path style="fill:#5975b0; stroke:none;" d="M1309 174L1310 175L1309 174z"/>
<path style="fill:#153b6b; stroke:none;" d="M1310 174C1317.75 202.332 1334.26 230.139 1346.14 257C1369.59 310.028 1392.87 363.143 1416.69 416C1422.69 429.292 1428.61 442.63 1434.42 456C1436.8 461.459 1439.09 470.384 1443.64 474.397C1446.29 476.732 1450.74 476 1454 476C1463.35 476.001 1475.89 478.209 1484.89 475.682C1490.48 474.114 1493.05 462.772 1495.23 458C1503.41 440.08 1511.06 421.92 1519.23 404C1542.24 353.556 1564.44 302.711 1586.86 252C1598.06 226.674 1613.39 200.613 1621 174L1583 174L1568.65 175.028L1559.77 193L1539 240L1492.86 344L1465 406L1441.42 352L1389.77 235L1370.85 192L1362.36 175.028L1348 174L1310 174z"/>
<path style="fill:#9aabc4; stroke:none;" d="M1091.67 175.333L1092.33 175.667L1091.67 175.333z"/>
<path style="fill:#5975b0; stroke:none;" d="M1181 175L1182 176L1181 175z"/>
<path style="fill:#9aabc4; stroke:none;" d="M1182.67 175.333L1183.33 175.667L1182.67 175.333z"/>
<path style="fill:#5975b0; stroke:none;" d="M1363 175L1364 176L1363 175z"/>
<path style="fill:#9aabc4; stroke:none;" d="M1567 175L1568 176L1567 175M1088 176L1089 177L1088 176z"/>
<path style="fill:#5975b0; stroke:none;" d="M1089 176L1090 177L1089 176M1185 176L1186 177L1185 176z"/>
<path style="fill:#9aabc4; stroke:none;" d="M1186 176L1187 177L1186 176z"/>
<path style="fill:#5975b0; stroke:none;" d="M1310 176L1311 177L1310 176z"/>
<path style="fill:#9aabc4; stroke:none;" d="M1620 176L1621 177L1620 176M1085 177L1086 178L1085 177z"/>
<path style="fill:#5975b0; stroke:none;" d="M1086 177L1087 178L1086 177M1188 177L1189 178L1188 177z"/>
<path style="fill:#9aabc4; stroke:none;" d="M1189 177L1190 178L1189 177M1310 177L1311 178L1310 177M1364 177L1365 178L1364 177M1566 177L1567 178L1566 177M1082 178L1083 179L1082 178z"/>
<path style="fill:#5975b0; stroke:none;" d="M1191 178L1192 179L1191 178z"/>
<path style="fill:#9aabc4; stroke:none;" d="M1192 178L1193 179L1192 178z"/>
<path style="fill:#5975b0; stroke:none;" d="M1311 178L1312 179L1311 178M1619 178L1620 179L1619 178z"/>
<path style="fill:#9aabc4; stroke:none;" d="M1079 179L1080 180L1079 179z"/>
<path style="fill:#5975b0; stroke:none;" d="M1080 179L1081 180L1080 179M1194 179L1195 180L1194 179z"/>
<path style="fill:#9aabc4; stroke:none;" d="M1195 179L1196 180L1195 179M1311 179L1312 180L1311 179M1365 179L1366 180L1365 179M1565 179L1566 180L1565 179M1076 180L1077 181L1076 180z"/>
<path style="fill:#5975b0; stroke:none;" d="M1077 180L1078 181L1077 180M1197 180L1198 181L1197 180z"/>
<path style="fill:#9aabc4; stroke:none;" d="M1198 180L1199 181L1198 180z"/>
<path style="fill:#5975b0; stroke:none;" d="M1565 180L1566 181L1565 180M1618 180L1619 181L1618 180M1074 181L1075 182L1074 181z"/>
<path style="fill:#9aabc4; stroke:none;" d="M1200 181L1201 182L1200 181M1312 181L1313 182L1312 181M1366 181L1367 182L1366 181M1564 181L1565 182L1564 181M1618 181L1619 182L1618 181M1071 182L1072 183L1071 182z"/>
<path style="fill:#5975b0; stroke:none;" d="M1072 182L1073 183L1072 182M1202 182L1203 183L1202 182z"/>
<path style="fill:#9aabc4; stroke:none;" d="M1203 182L1204 183L1203 182z"/>
<path style="fill:#5975b0; stroke:none;" d="M1366 182L1367 183L1366 182M1564 182L1565 183L1564 182z"/>
<path style="fill:#9aabc4; stroke:none;" d="M1069 183L1070 184L1069 183z"/>
<path style="fill:#5975b0; stroke:none;" d="M1204 183L1205 184L1204 183z"/>
<path style="fill:#9aabc4; stroke:none;" d="M1205 183L1206 184L1205 183z"/>
<path style="fill:#5975b0; stroke:none;" d="M1313 183L1314 184L1313 183z"/>
<path style="fill:#9aabc4; stroke:none;" d="M1617 183L1618 184L1617 183M1067 184L1068 185L1067 184M1207 184L1208 185L1207 184z"/>
<path style="fill:#5975b0; stroke:none;" d="M1367 184L1368 185L1367 184z"/>
<path style="fill:#9aabc4; stroke:none;" d="M1563 184L1564 185L1563 184z"/>
<path style="fill:#5975b0; stroke:none;" d="M1065 185L1066 186L1065 185z"/>
<path style="fill:#9aabc4; stroke:none;" d="M1209 185L1210 186L1209 185z"/>
<path style="fill:#5975b0; stroke:none;" d="M1314 185L1315 186L1314 185z"/>
<path style="fill:#9aabc4; stroke:none;" d="M1616 185L1617 186L1616 185z"/>
<path style="fill:#5975b0; stroke:none;" d="M1063 186L1064 187L1063 186z"/>
<path style="fill:#9aabc4; stroke:none;" d="M1211 186L1212 187L1211 186M1314 186L1315 187L1314 186M1368 186L1369 187L1368 186M1562 186L1563 187L1562 186z"/>
<path style="fill:#5975b0; stroke:none;" d="M1061 187L1062 188L1061 187z"/>
<path style="fill:#9aabc4; stroke:none;" d="M1213 187L1214 188L1213 187z"/>
<path style="fill:#5975b0; stroke:none;" d="M1615 187L1616 188L1615 187z"/>
<path style="fill:#9aabc4; stroke:none;" d="M1059 188L1060 189L1059 188M1215 188L1216 189L1215 188M1315 188L1316 189L1315 188M1369 188L1370 189L1369 188M1561 188L1562 189L1561 188M1057 189L1058 190L1057 189M1217 189L1218 190L1217 189z"/>
<path style="fill:#5975b0; stroke:none;" d="M1561 189L1562 190L1561 189M1614 189L1615 190L1614 189z"/>
<path style="fill:#9aabc4; stroke:none;" d="M1055 190L1056 191L1055 190z"/>
<path style="fill:#5975b0; stroke:none;" d="M1218 190L1219 191L1218 190z"/>
<path style="fill:#9aabc4; stroke:none;" d="M1219 190L1220 191L1219 190M1316 190L1317 191L1316 190M1370 190L1371 191L1370 190M1614 190L1615 191L1614 190z"/>
<path style="fill:#5975b0; stroke:none;" d="M1054 191L1055 192L1054 191M1220 191L1221 192L1220 191M1370 191L1371 192L1370 191M1560 191L1561 192L1560 191z"/>
<path style="fill:#9aabc4; stroke:none;" d="M1052 192L1053 193L1052 192M1222 192L1223 193L1222 192z"/>
<path style="fill:#5975b0; stroke:none;" d="M1317 192L1318 193L1317 192z"/>
<path style="fill:#9aabc4; stroke:none;" d="M1613 192L1614 193L1613 192M1050 193L1051 194L1050 193M1224 193L1225 194L1224 193z"/>
<path style="fill:#5975b0; stroke:none;" d="M1371 193L1372 194L1371 193z"/>
<path style="fill:#9aabc4; stroke:none;" d="M1559 193L1560 194L1559 193z"/>
<path style="fill:#5975b0; stroke:none;" d="M1049 194L1050 195L1049 194M1225 194L1226 195L1225 194M1318 194L1319 195L1318 194z"/>
<path style="fill:#9aabc4; stroke:none;" d="M1612 194L1613 195L1612 194M1047 195L1048 196L1047 195M1227 195L1228 196L1227 195M1318 195L1319 196L1318 195M1372 195L1373 196L1372 195M1558 195L1559 196L1558 195z"/>
<path style="fill:#5975b0; stroke:none;" d="M1046 196L1047 197L1046 196M1228 196L1229 197L1228 196M1611 196L1612 197L1611 196z"/>
<path style="fill:#9aabc4; stroke:none;" d="M1044 197L1045 198L1044 197M1230 197L1231 198L1230 197M1319 197L1320 198L1319 197M1373 197L1374 198L1373 197M1557 197L1558 198L1557 197z"/>
<path style="fill:#5975b0; stroke:none;" d="M1043 198L1044 199L1043 198M1231 198L1232 199L1231 198M1373 198L1374 199L1373 198M1557 198L1558 199L1557 198M1610 198L1611 199L1610 198z"/>
<path style="fill:#9aabc4; stroke:none;" d="M1041 199L1042 200L1041 199M1233 199L1234 200L1233 199M1320 199L1321 200L1320 199M1374 199L1375 200L1374 199M1610 199L1611 200L1610 199z"/>
<path style="fill:#5975b0; stroke:none;" d="M1040 200L1041 201L1040 200M1234 200L1235 201L1234 200M1374 200L1375 201L1374 200M1556 200L1557 201L1556 200z"/>
<path style="fill:#9aabc4; stroke:none;" d="M1038 201L1039 202L1038 201z"/>
<path style="fill:#5975b0; stroke:none;" d="M1235 201L1236 202L1235 201M1321 201L1322 202L1321 201z"/>
<path style="fill:#9aabc4; stroke:none;" d="M1609 201L1610 202L1609 201M1037 202L1038 203L1037 202M1237 202L1238 203L1237 202z"/>
<path style="fill:#5975b0; stroke:none;" d="M1375 202L1376 203L1375 202z"/>
<path style="fill:#9aabc4; stroke:none;" d="M1555 202L1556 203L1555 202z"/>
<path style="fill:#5975b0; stroke:none;" d="M1036 203L1037 204L1036 203M1238 203L1239 204L1238 203M1322 203L1323 204L1322 203z"/>
<path style="fill:#9aabc4; stroke:none;" d="M1608 203L1609 204L1608 203z"/>
<path style="fill:#5975b0; stroke:none;" d="M1239 204L1240 205L1239 204z"/>
<path style="fill:#9aabc4; stroke:none;" d="M1322 204L1323 205L1322 204M1376 204L1377 205L1376 204M1554 204L1555 205L1554 204M1033 205L1034 206L1033 205M1241 205L1242 206L1241 205z"/>
<path style="fill:#5975b0; stroke:none;" d="M1607 205L1608 206L1607 205z"/>
<path style="fill:#9aabc4; stroke:none;" d="M1032 206L1033 207L1032 206M1242 206L1243 207L1242 206M1323 206L1324 207L1323 206M1377 206L1378 207L1377 206M1553 206L1554 207L1553 206z"/>
<path style="fill:#5975b0; stroke:none;" d="M1031 207L1032 208L1031 207M1243 207L1244 208L1243 207M1377 207L1378 208L1377 207M1553 207L1554 208L1553 207M1606 207L1607 208L1606 207M1030 208L1031 209L1030 208M1244 208L1245 209L1244 208z"/>
<path style="fill:#9aabc4; stroke:none;" d="M1324 208L1325 209L1324 208M1378 208L1379 209L1378 208M1606 208L1607 209L1606 208z"/>
<path style="fill:#5975b0; stroke:none;" d="M1245 209L1246 210L1245 209M1378 209L1379 210L1378 209M1552 209L1553 210L1552 209M1325 210L1326 211L1325 210z"/>
<path style="fill:#9aabc4; stroke:none;" d="M1605 210L1606 211L1605 210M1026 211L1027 212L1026 211M1379 211L1380 212L1379 211M1551 211L1552 212L1551 211M1025 212L1026 213L1025 212M1249 212L1250 213L1249 212z"/>
<path style="fill:#5975b0; stroke:none;" d="M1326 212L1327 213L1326 212z"/>
<path style="fill:#9aabc4; stroke:none;" d="M1604 212L1605 213L1604 212M1024 213L1025 214L1024 213M1250 213L1251 214L1250 213M1326 213L1327 214L1326 213M1380 213L1381 214L1380 213M1550 213L1551 214L1550 213M1023 214L1024 215L1023 214M1251 214L1252 215L1251 214z"/>
<path style="fill:#5975b0; stroke:none;" d="M1603 214L1604 215L1603 214z"/>
<path style="fill:#9aabc4; stroke:none;" d="M1022 215L1023 216L1022 215M1252 215L1253 216L1252 215M1327 215L1328 216L1327 215M1381 215L1382 216L1381 215M1549 215L1550 216L1549 215M1021 216L1022 217L1021 216M1253 216L1254 217L1253 216z"/>
<path style="fill:#5975b0; stroke:none;" d="M1381 216L1382 217L1381 216M1549 216L1550 217L1549 216M1602 216L1603 217L1602 216z"/>
<path style="fill:#9aabc4; stroke:none;" d="M1020 217L1021 218L1020 217z"/>
<path style="fill:#5975b0; stroke:none;" d="M1122.67 217.333L1123.33 217.667L1122.67 217.333z"/>
<path style="fill:#9aabc4; stroke:none;" d="M1124 217L1124 218L1130 218L1124 217z"/>
<path style="fill:#ffffff; stroke:none;" d="M1130 217.424C1106.96 220.452 1086.87 225.805 1068 240.236C1014.74 280.973 1014.02 363.245 1064 406.711C1088.84 428.311 1122.88 435.934 1155 431.711C1170.24 429.707 1184.93 424.198 1198 416.189C1277.71 367.333 1256.42 238.879 1164 220.004C1153.13 217.785 1141.07 215.971 1130 217.424z"/>
<path style="fill:#9aabc4; stroke:none;" d="M1145 217L1145 218L1151 218L1145 217z"/>
<path style="fill:#5975b0; stroke:none;" d="M1151.67 217.333L1152.33 217.667L1151.67 217.333z"/>
<path style="fill:#9aabc4; stroke:none;" d="M1254 217L1255 218L1254 217M1328 217L1329 218L1328 217M1602 217L1603 218L1602 217M1019 218L1020 219L1019 218z"/>
<path style="fill:#5975b0; stroke:none;" d="M1116 218L1117 219L1116 218z"/>
<path style="fill:#9aabc4; stroke:none;" d="M1117 218L1117 219L1120 219L1117 218M1155 218L1155 219L1158 219L1155 218z"/>
<path style="fill:#5975b0; stroke:none;" d="M1158 218L1159 219L1158 218z"/>
<path style="fill:#9aabc4; stroke:none;" d="M1255 218L1256 219L1255 218z"/>
<path style="fill:#5975b0; stroke:none;" d="M1382 218L1383 219L1382 218M1548 218L1549 219L1548 218z"/>
<path style="fill:#9aabc4; stroke:none;" d="M1018 219L1019 220L1018 219z"/>
<path style="fill:#5975b0; stroke:none;" d="M1111 219L1112 220L1111 219z"/>
<path style="fill:#9aabc4; stroke:none;" d="M1112.67 219.333L1113.33 219.667L1112.67 219.333M1161.67 219.333L1162.33 219.667L1161.67 219.333z"/>
<path style="fill:#5975b0; stroke:none;" d="M1163 219L1164 220L1163 219z"/>
<path style="fill:#9aabc4; stroke:none;" d="M1256 219L1257 220L1256 219z"/>
<path style="fill:#5975b0; stroke:none;" d="M1329 219L1330 220L1329 219z"/>
<path style="fill:#9aabc4; stroke:none;" d="M1601 219L1602 220L1601 219M1017 220L1018 221L1017 220z"/>
<path style="fill:#5975b0; stroke:none;" d="M1107 220L1108 221L1107 220z"/>
<path style="fill:#9aabc4; stroke:none;" d="M1108 220L1109 221L1108 220M1166 220L1167 221L1166 220z"/>
<path style="fill:#5975b0; stroke:none;" d="M1167 220L1168 221L1167 220z"/>
<path style="fill:#9aabc4; stroke:none;" d="M1383 220L1384 221L1383 220M1547 220L1548 221L1547 220z"/>
<path style="fill:#5975b0; stroke:none;" d="M1103 221L1104 222L1103 221z"/>
<path style="fill:#9aabc4; stroke:none;" d="M1104.67 221.333L1105.33 221.667L1104.67 221.333M1170 221L1171 222L1170 221z"/>
<path style="fill:#5975b0; stroke:none;" d="M1171 221L1172 222L1171 221M1330 221L1331 222L1330 221z"/>
<path style="fill:#9aabc4; stroke:none;" d="M1600 221L1601 222L1600 221z"/>
<path style="fill:#5975b0; stroke:none;" d="M1100 222L1101 223L1100 222z"/>
<path style="fill:#9aabc4; stroke:none;" d="M1101 222L1102 223L1101 222M1173 222L1174 223L1173 222z"/>
<path style="fill:#5975b0; stroke:none;" d="M1174 222L1175 223L1174 222z"/>
<path style="fill:#9aabc4; stroke:none;" d="M1330 222L1331 223L1330 222M1384 222L1385 223L1384 222M1546 222L1547 223L1546 222M1098 223L1099 224L1098 223M1176 223L1177 224L1176 223z"/>
<path style="fill:#5975b0; stroke:none;" d="M1177 223L1178 224L1177 223M1259 223L1260 224L1259 223M1599 223L1600 224L1599 223M1014 224L1015 225L1014 224M1095 224L1096 225L1095 224z"/>
<path style="fill:#9aabc4; stroke:none;" d="M1179 224L1180 225L1179 224z"/>
<path style="fill:#5975b0; stroke:none;" d="M1260 224L1261 225L1260 224z"/>
<path style="fill:#9aabc4; stroke:none;" d="M1331 224L1332 225L1331 224M1385 224L1386 225L1385 224M1545 224L1546 225L1545 224z"/>
<path style="fill:#5975b0; stroke:none;" d="M1013 225L1014 226L1013 225z"/>
<path style="fill:#9aabc4; stroke:none;" d="M1093 225L1094 226L1093 225M1181 225L1182 226L1181 225z"/>
<path style="fill:#5975b0; stroke:none;" d="M1182 225L1183 226L1182 225M1261 225L1262 226L1261 225M1385 225L1386 226L1385 225M1545 225L1546 226L1545 225M1598 225L1599 226L1598 225z"/>
<path style="fill:#9aabc4; stroke:none;" d="M1012 226L1013 227L1012 226z"/>
<path style="fill:#5975b0; stroke:none;" d="M1090 226L1091 227L1090 226z"/>
<path style="fill:#9aabc4; stroke:none;" d="M1091 226L1092 227L1091 226M1183 226L1184 227L1183 226z"/>
<path style="fill:#5975b0; stroke:none;" d="M1184 226L1185 227L1184 226z"/>
<path style="fill:#9aabc4; stroke:none;" d="M1262 226L1263 227L1262 226M1332 226L1333 227L1332 226M1598 226L1599 227L1598 226M1011 227L1012 228L1011 227z"/>
<path style="fill:#5975b0; stroke:none;" d="M1088 227L1089 228L1088 227M1186 227L1187 228L1186 227z"/>
<path style="fill:#9aabc4; stroke:none;" d="M1263 227L1264 228L1263 227z"/>
<path style="fill:#5975b0; stroke:none;" d="M1386 227L1387 228L1386 227M1544 227L1545 228L1544 227M1086 228L1087 229L1086 228M1188 228L1189 229L1188 228M1333 228L1334 229L1333 228z"/>
<path style="fill:#9aabc4; stroke:none;" d="M1597 228L1598 229L1597 228z"/>
<path style="fill:#5975b0; stroke:none;" d="M1084 229L1085 230L1084 229M1190 229L1191 230L1190 229M1264 229L1265 230L1264 229z"/>
<path style="fill:#9aabc4; stroke:none;" d="M1387 229L1388 230L1387 229M1543 229L1544 230L1543 229z"/>
<path style="fill:#5975b0; stroke:none;" d="M1009 230L1010 231L1009 230M1082 230L1083 231L1082 230M1192 230L1193 231L1192 230M1265 230L1266 231L1265 230M1334 230L1335 231L1334 230z"/>
<path style="fill:#9aabc4; stroke:none;" d="M1596 230L1597 231L1596 230M1008 231L1009 232L1008 231M1081 231L1082 232L1081 231M1193 231L1194 232L1193 231z"/>
<path style="fill:#5975b0; stroke:none;" d="M1194 231L1195 232L1194 231z"/>
<path style="fill:#9aabc4; stroke:none;" d="M1266 231L1267 232L1266 231M1334 231L1335 232L1334 231M1388 231L1389 232L1388 231M1542 231L1543 232L1542 231M1007 232L1008 233L1007 232M1079 232L1080 233L1079 232M1195 232L1196 233L1195 232z"/>
<path style="fill:#5975b0; stroke:none;" d="M1388 232L1389 233L1388 232M1595 232L1596 233L1595 232M1077 233L1078 234L1077 233M1197 233L1198 234L1197 233z"/>
<path style="fill:#9aabc4; stroke:none;" d="M1335 233L1336 234L1335 233M1389 233L1390 234L1389 233M1541 233L1542 234L1541 233z"/>
<path style="fill:#5975b0; stroke:none;" d="M1006 234L1007 235L1006 234z"/>
<path style="fill:#9aabc4; stroke:none;" d="M1076 234L1077 235L1076 234M1198 234L1199 235L1198 234z"/>
<path style="fill:#5975b0; stroke:none;" d="M1268 234L1269 235L1268 234M1389 234L1390 235L1389 234M1541 234L1542 235L1541 234M1594 234L1595 235L1594 234z"/>
<path style="fill:#9aabc4; stroke:none;" d="M1005 235L1006 236L1005 235M1074 235L1075 236L1074 235M1200 235L1201 236L1200 235M1269 235L1270 236L1269 235M1336 235L1337 236L1336 235M1594 235L1595 236L1594 235M1073 236L1074 237L1073 236M1201 236L1202 237L1201 236z"/>
<path style="fill:#5975b0; stroke:none;" d="M1390 236L1391 237L1390 236M1540 236L1541 237L1540 236M1004 237L1005 238L1004 237M1071 237L1072 238L1071 237M1203 237L1204 238L1203 237M1270 237L1271 238L1270 237M1337 237L1338 238L1337 237z"/>
<path style="fill:#9aabc4; stroke:none;" d="M1593 237L1594 238L1593 237M1003 238L1004 239L1003 238M1070 238L1071 239L1070 238M1204 238L1205 239L1204 238M1271 238L1272 239L1271 238M1391 238L1392 239L1391 238M1539 238L1540 239L1539 238z"/>
<path style="fill:#5975b0; stroke:none;" d="M1068 239L1069 240L1068 239M1206 239L1207 240L1206 239M1338 239L1339 240L1338 239z"/>
<path style="fill:#9aabc4; stroke:none;" d="M1592 239L1593 240L1592 239z"/>
<path style="fill:#5975b0; stroke:none;" d="M1002 240L1003 241L1002 240M1067 240L1068 241L1067 240M1207 240L1208 241L1207 240M1272 240L1273 241L1272 240z"/>
<path style="fill:#9aabc4; stroke:none;" d="M1338 240L1339 241L1338 240M1392 240L1393 241L1392 240M1538 240L1539 241L1538 240M1001 241L1002 242L1001 241M1066 241L1067 242L1066 241M1208 241L1209 242L1208 241M1273 241L1274 242L1273 241z"/>
<path style="fill:#5975b0; stroke:none;" d="M1392 241L1393 242L1392 241M1538 241L1539 242L1538 241M1591 241L1592 242L1591 241z"/>
<path style="fill:#9aabc4; stroke:none;" d="M1065 242L1066 243L1065 242M1339 242L1340 243L1339 242M1393 242L1394 243L1393 242M1537 242L1538 243L1537 242z"/>
<path style="fill:#5975b0; stroke:none;" d="M1000 243L1001 244L1000 243M1063 243L1064 244L1063 243M1211 243L1212 244L1211 243M1274 243L1275 244L1274 243M1393 243L1394 244L1393 243M1537 243L1538 244L1537 243M1590 243L1591 244L1590 243z"/>
<path style="fill:#9aabc4; stroke:none;" d="M999 244L1000 245L999 244z"/>
<path style="fill:#5975b0; stroke:none;" d="M1062 244L1063 245L1062 244M1212 244L1213 245L1212 244z"/>
<path style="fill:#9aabc4; stroke:none;" d="M1275 244L1276 245L1275 244M1340 244L1341 245L1340 244M1590 244L1591 245L1590 244z"/>
<path style="fill:#5975b0; stroke:none;" d="M1061 245L1062 246L1061 245M1213 245L1214 246L1213 245M1394 245L1395 246L1394 245M1536 245L1537 246L1536 245z"/>
<path style="fill:#9aabc4; stroke:none;" d="M998 246L999 247L998 246z"/>
<path style="fill:#5975b0; stroke:none;" d="M1060 246L1061 247L1060 246M1214 246L1215 247L1214 246z"/>
<path style="fill:#9aabc4; stroke:none;" d="M1276 246L1277 247L1276 246z"/>
<path style="fill:#5975b0; stroke:none;" d="M1341 246L1342 247L1341 246z"/>
<path style="fill:#9aabc4; stroke:none;" d="M1589 246L1590 247L1589 246z"/>
<path style="fill:#5975b0; stroke:none;" d="M1059 247L1060 248L1059 247z"/>
<path style="fill:#9aabc4; stroke:none;" d="M1215 247L1216 248L1215 247M1395 247L1396 248L1395 247M1535 247L1536 248L1535 247z"/>
<path style="fill:#5975b0; stroke:none;" d="M997 248L998 249L997 248M1058 248L1059 249L1058 248z"/>
<path style="fill:#9aabc4; stroke:none;" d="M1216 248L1217 249L1216 248z"/>
<path style="fill:#5975b0; stroke:none;" d="M1277 248L1278 249L1277 248M1342 248L1343 249L1342 248z"/>
<path style="fill:#9aabc4; stroke:none;" d="M1588 248L1589 249L1588 248M996 249L997 250L996 249z"/>
<path style="fill:#5975b0; stroke:none;" d="M1057 249L1058 250L1057 249z"/>
<path style="fill:#9aabc4; stroke:none;" d="M1217 249L1218 250L1217 249M1278 249L1279 250L1278 249M1342 249L1343 250L1342 249M1396 249L1397 250L1396 249M1534 249L1535 250L1534 249z"/>
<path style="fill:#5975b0; stroke:none;" d="M1056 250L1057 251L1056 250z"/>
<path style="fill:#9aabc4; stroke:none;" d="M1218 250L1219 251L1218 250z"/>
<path style="fill:#5975b0; stroke:none;" d="M1396 250L1397 251L1396 250M1534 250L1535 251L1534 250M1587 250L1588 251L1587 250z"/>
<path style="fill:#9aabc4; stroke:none;" d="M995 251L996 252L995 251z"/>
<path style="fill:#5975b0; stroke:none;" d="M1055 251L1056 252L1055 251M1219 251L1220 252L1219 251z"/>
<path style="fill:#9aabc4; stroke:none;" d="M1279 251L1280 252L1279 251M1343 251L1344 252L1343 251M1533 251L1534 252L1533 251z"/>
<path style="fill:#5975b0; stroke:none;" d="M1054 252L1055 253L1054 252M1220 252L1221 253L1220 252M1397 252L1398 253L1397 252M1533 252L1534 253L1533 252M1586 252L1587 253L1586 252z"/>
<path style="fill:#9aabc4; stroke:none;" d="M994 253L995 254L994 253z"/>
<path style="fill:#5975b0; stroke:none;" d="M1053 253L1054 254L1053 253M1221 253L1222 254L1221 253z"/>
<path style="fill:#9aabc4; stroke:none;" d="M1280 253L1281 254L1280 253M1344 253L1345 254L1344 253M1586 253L1587 254L1586 253z"/>
<path style="fill:#5975b0; stroke:none;" d="M1052 254L1053 255L1052 254M1222 254L1223 255L1222 254z"/>
<path style="fill:#9aabc4; stroke:none;" d="M1398 254L1399 255L1398 254z"/>
<path style="fill:#5975b0; stroke:none;" d="M1532 254L1533 255L1532 254z"/>
<path style="fill:#9aabc4; stroke:none;" d="M993 255L994 256L993 255M1281 255L1282 256L1281 255z"/>
<path style="fill:#5975b0; stroke:none;" d="M1345 255L1346 256L1345 255z"/>
<path style="fill:#9aabc4; stroke:none;" d="M1585 255L1586 256L1585 255M1399 256L1400 257L1399 256M1531 256L1532 257L1531 256M992 257L993 258L992 257M1050 257L1051 258L1050 257M1224 257L1225 258L1224 257M1282 257L1283 258L1282 257z"/>
<path style="fill:#5975b0; stroke:none;" d="M1346 257L1347 258L1346 257z"/>
<path style="fill:#9aabc4; stroke:none;" d="M1584 257L1585 258L1584 257z"/>
<path style="fill:#5975b0; stroke:none;" d="M1049 258L1050 259L1049 258z"/>
<path style="fill:#9aabc4; stroke:none;" d="M1225 258L1226 259L1225 258M1346 258L1347 259L1346 258M1400 258L1401 259L1400 258M1530 258L1531 259L1530 258M991 259L992 260L991 259z"/>
<path style="fill:#5975b0; stroke:none;" d="M1048 259L1049 260L1048 259M1226 259L1227 260L1226 259z"/>
<path style="fill:#9aabc4; stroke:none;" d="M1283 259L1284 260L1283 259z"/>
<path style="fill:#5975b0; stroke:none;" d="M1400 259L1401 260L1400 259M1530 259L1531 260L1530 259M1583 259L1584 260L1583 259z"/>
<path style="fill:#9aabc4; stroke:none;" d="M1347 260L1348 261L1347 260M1529 260L1530 261L1529 260M990 261L991 262L990 261M1047 261L1048 262L1047 261M1227 261L1228 262L1227 261M1284 261L1285 262L1284 261z"/>
<path style="fill:#5975b0; stroke:none;" d="M1401 261L1402 262L1401 261M1529 261L1530 262L1529 261M1582 261L1583 262L1582 261z"/>
<path style="fill:#9aabc4; stroke:none;" d="M1046 262L1047 263L1046 262M1228 262L1229 263L1228 262M1348 262L1349 263L1348 262M1582 262L1583 263L1582 262M989 263L990 264L989 263z"/>
<path style="fill:#5975b0; stroke:none;" d="M1045 263L1046 264L1045 263M1229 263L1230 264L1229 263z"/>
<path style="fill:#9aabc4; stroke:none;" d="M1285 263L1286 264L1285 263M1402 263L1403 264L1402 263z"/>
<path style="fill:#5975b0; stroke:none;" d="M1528 263L1529 264L1528 263M989 264L990 265L989 264M1285 264L1286 265L1285 264M1349 264L1350 265L1349 264z"/>
<path style="fill:#9aabc4; stroke:none;" d="M1581 264L1582 265L1581 264M1044 265L1045 266L1044 265M1230 265L1231 266L1230 265M1403 265L1404 266L1403 265M1527 265L1528 266L1527 265z"/>
<path style="fill:#5975b0; stroke:none;" d="M988 266L989 267L988 266M1043 266L1044 267L1043 266M1231 266L1232 267L1231 266z"/>
<path style="fill:#9aabc4; stroke:none;" d="M1286 266L1287 267L1286 266z"/>
<path style="fill:#5975b0; stroke:none;" d="M1350 266L1351 267L1350 266z"/>
<path style="fill:#9aabc4; stroke:none;" d="M1580 266L1581 267L1580 266M1350 267L1351 268L1350 267M1404 267L1405 268L1404 267M1526 267L1527 268L1526 267M987 268L988 269L987 268M1042 268L1043 269L1042 268M1232 268L1233 269L1232 268M1287 268L1288 269L1287 268z"/>
<path style="fill:#5975b0; stroke:none;" d="M1404 268L1405 269L1404 268M1526 268L1527 269L1526 268M1579 268L1580 269L1579 268M987 269L988 270L987 269M1287 269L1288 270L1287 269z"/>
<path style="fill:#9aabc4; stroke:none;" d="M1351 269L1352 270L1351 269M1525 269L1526 270L1525 269M1041 270L1042 271L1041 270M1233 270L1234 271L1233 270z"/>
<path style="fill:#5975b0; stroke:none;" d="M1405 270L1406 271L1405 270M1525 270L1526 271L1525 270M1578 270L1579 271L1578 270z"/>
<path style="fill:#9aabc4; stroke:none;" d="M986 271L987 272L986 271z"/>
<path style="fill:#5975b0; stroke:none;" d="M1040 271L1041 272L1040 271M1234 271L1235 272L1234 271z"/>
<path style="fill:#9aabc4; stroke:none;" d="M1288 271L1289 272L1288 271M1352 271L1353 272L1352 271M1578 271L1579 272L1578 271z"/>
<path style="fill:#5975b0; stroke:none;" d="M986 272L987 273L986 272z"/>
<path style="fill:#9aabc4; stroke:none;" d="M1040 272L1041 273L1040 272M1406 272L1407 273L1406 272z"/>
<path style="fill:#5975b0; stroke:none;" d="M1524 272L1525 273L1524 272M1039 273L1040 274L1039 273z"/>
<path style="fill:#9aabc4; stroke:none;" d="M1235 273L1236 274L1235 273z"/>
<path style="fill:#5975b0; stroke:none;" d="M1353 273L1354 274L1353 273z"/>
<path style="fill:#9aabc4; stroke:none;" d="M1577 273L1578 274L1577 273z"/>
<path style="fill:#5975b0; stroke:none;" d="M985 274L986 275L985 274M1289 274L1290 275L1289 274z"/>
<path style="fill:#9aabc4; stroke:none;" d="M1353 274L1354 275L1353 274M1407 274L1408 275L1407 274M1523 274L1524 275L1523 274M1038 275L1039 276L1038 275M1236 275L1237 276L1236 275z"/>
<path style="fill:#5975b0; stroke:none;" d="M1354 275L1355 276L1354 275M1407 275L1408 276L1407 275z"/>
<path style="fill:#9aabc4; stroke:none;" d="M1576 275L1577 276L1576 275M1354 276L1355 277L1354 276M1408 276L1409 277L1408 276M1522 276L1523 277L1522 276M984 277L985 278L984 277M1037 277L1038 278L1037 277M1237 277L1238 278L1237 277M1290 277L1291 278L1290 277z"/>
<path style="fill:#5975b0; stroke:none;" d="M1408 277L1409 278L1408 277M1522 277L1523 278L1522 277M1575 277L1576 278L1575 277M984 278L985 279L984 278z"/>
<path style="fill:#9aabc4; stroke:none;" d="M1355 278L1356 279L1355 278M1521 278L1522 279L1521 278z"/>
<path style="fill:#5975b0; stroke:none;" d="M1036 279L1037 280L1036 279z"/>
<path style="fill:#9aabc4; stroke:none;" d="M1238 279L1239 280L1238 279z"/>
<path style="fill:#5975b0; stroke:none;" d="M1409 279L1410 280L1409 279M1521 279L1522 280L1521 279M1574 279L1575 280L1574 279z"/>
<path style="fill:#9aabc4; stroke:none;" d="M983 280L984 281L983 280M1291 280L1292 281L1291 280M1356 280L1357 281L1356 280M1574 280L1575 281L1574 280z"/>
<path style="fill:#5975b0; stroke:none;" d="M983 281L984 282L983 281M1035 281L1036 282L1035 281M1239 281L1240 282L1239 281M1291 281L1292 282L1291 281z"/>
<path style="fill:#9aabc4; stroke:none;" d="M1410 281L1411 282L1410 281M1520 281L1521 282L1520 281M1035 282L1036 283L1035 282z"/>
<path style="fill:#5975b0; stroke:none;" d="M1357 282L1358 283L1357 282z"/>
<path style="fill:#9aabc4; stroke:none;" d="M1573 282L1574 283L1573 282M982.333 283.667L982.667 284.333L982.333 283.667z"/>
<path style="fill:#5975b0; stroke:none;" d="M1034 283L1035 284L1034 283M1240 283L1241 284L1240 283z"/>
<path style="fill:#9aabc4; stroke:none;" d="M1292.33 283.667L1292.67 284.333L1292.33 283.667M1357 283L1358 284L1357 283M1411 283L1412 284L1411 283M1519 283L1520 284L1519 283M1034 284L1035 285L1034 284M1240 284L1241 285L1240 284z"/>
<path style="fill:#5975b0; stroke:none;" d="M1358 284L1359 285L1358 284M1411 284L1412 285L1411 284z"/>
<path style="fill:#9aabc4; stroke:none;" d="M1572 284L1573 285L1572 284z"/>
<path style="fill:#5975b0; stroke:none;" d="M982 285L983 286L982 285M1292 285L1293 286L1292 285z"/>
<path style="fill:#9aabc4; stroke:none;" d="M1358 285L1359 286L1358 285M1412 285L1413 286L1412 285M1518 285L1519 286L1518 285z"/>
<path style="fill:#5975b0; stroke:none;" d="M1033 286L1034 287L1033 286z"/>
<path style="fill:#9aabc4; stroke:none;" d="M1241 286L1242 287L1241 286z"/>
<path style="fill:#5975b0; stroke:none;" d="M1412 286L1413 287L1412 286M1518 286L1519 287L1518 286M1571 286L1572 287L1571 286z"/>
<path style="fill:#9aabc4; stroke:none;" d="M981.333 287.667L981.667 288.333L981.333 287.667M1293.33 287.667L1293.67 288.333L1293.33 287.667M1359 287L1360 288L1359 287z"/>
<path style="fill:#5975b0; stroke:none;" d="M1242 288L1243 289L1242 288z"/>
<path style="fill:#9aabc4; stroke:none;" d="M1413 288L1414 289L1413 288z"/>
<path style="fill:#5975b0; stroke:none;" d="M1517 288L1518 289L1517 288M1570 288L1571 289L1570 288M981 289L982 290L981 289z"/>
<path style="fill:#9aabc4; stroke:none;" d="M1032 289L1033 290L1032 289M1242 289L1243 290L1242 289z"/>
<path style="fill:#5975b0; stroke:none;" d="M1293 289L1294 290L1293 289z"/>
<path style="fill:#9aabc4; stroke:none;" d="M1360 289L1361 290L1360 289M1570 289L1571 290L1570 289M1051 290L1051 291L1056 291L1051 290M1414 290L1415 291L1414 290M1516 290L1517 291L1516 290z"/>
<path style="fill:#5975b0; stroke:none;" d="M1031 291L1032 292L1031 291M1050.75 292.029C1046.57 295.433 1052.43 301.116 1056.4 297.971C1060.63 294.615 1054.67 288.829 1050.75 292.029z"/>
<path style="fill:#9aabc4; stroke:none;" d="M1057 291L1058 292L1057 291z"/>
<path style="fill:#5975b0; stroke:none;" d="M1243 291L1244 292L1243 291z"/>
<path style="fill:#9aabc4; stroke:none;" d="M1294.33 291.667L1294.67 292.333L1294.33 291.667z"/>
<path style="fill:#5975b0; stroke:none;" d="M1361 291L1362 292L1361 291z"/>
<path style="fill:#9aabc4; stroke:none;" d="M1569 291L1570 292L1569 291M980.333 292.667L980.667 293.333L980.333 292.667M1031 292L1032 293L1031 292M1049 292L1050 293L1049 292M1243 292L1244 293L1243 292M1361 292L1362 293L1361 292M1415 292L1416 293L1415 292M1515 292L1516 293L1515 292M1058 293L1058 297L1059 297L1058 293z"/>
<path style="fill:#5975b0; stroke:none;" d="M1294 293L1295 294L1294 293M1362 293L1363 294L1362 293M1415 293L1416 294L1415 293z"/>
<path style="fill:#9aabc4; stroke:none;" d="M1568 293L1569 294L1568 293z"/>
<path style="fill:#5975b0; stroke:none;" d="M980 294L981 295L980 294M1244 294L1245 295L1244 294z"/>
<path style="fill:#9aabc4; stroke:none;" d="M1362 294L1363 295L1362 294M1514 294L1515 295L1514 294z"/>
<path style="fill:#5975b0; stroke:none;" d="M1030 295L1031 296L1030 295z"/>
<path style="fill:#9aabc4; stroke:none;" d="M1244.33 295.667L1244.67 296.333L1244.33 295.667z"/>
<path style="fill:#5975b0; stroke:none;" d="M1416 295L1417 296L1416 295M1514 295L1515 296L1514 295M1567 295L1568 296L1567 295z"/>
<path style="fill:#9aabc4; stroke:none;" d="M1030 296L1031 297L1030 296M1295 296L1295 299L1296 299L1295 296M1363 296L1364 297L1363 296M979.333 297.667L979.667 298.333L979.333 297.667M1049 297L1050 298L1049 297M1417 297L1418 298L1417 297z"/>
<path style="fill:#5975b0; stroke:none;" d="M1513 297L1514 298L1513 297M1566 297L1567 298L1566 297M1029.33 298.667L1029.67 299.333L1029.33 298.667z"/>
<path style="fill:#9aabc4; stroke:none;" d="M1057 298L1058 299L1057 298z"/>
<path style="fill:#5975b0; stroke:none;" d="M1245 298L1246 299L1245 298z"/>
<path style="fill:#9aabc4; stroke:none;" d="M1364 298L1365 299L1364 298M1566 298L1567 299L1566 298z"/>
<path style="fill:#5975b0; stroke:none;" d="M979.333 299.667L979.667 300.333L979.333 299.667z"/>
<path style="fill:#9aabc4; stroke:none;" d="M1051 299L1051 300L1056 300L1051 299M1245.33 299.667L1245.67 300.333L1245.33 299.667z"/>
<path style="fill:#5975b0; stroke:none;" d="M1295 299L1296 300L1295 299z"/>
<path style="fill:#9aabc4; stroke:none;" d="M1418 299L1419 300L1418 299M1512 299L1513 300L1512 299M1029 300L1030 301L1029 300z"/>
<path style="fill:#5975b0; stroke:none;" d="M1365 300L1366 301L1365 300z"/>
<path style="fill:#9aabc4; stroke:none;" d="M1565 300L1566 301L1565 300M1365 301L1366 302L1365 301M1419 301L1420 302L1419 301M1511 301L1512 302L1511 301z"/>
<path style="fill:#5975b0; stroke:none;" d="M1246.33 302.667L1246.67 303.333L1246.33 302.667M1366 302L1367 303L1366 302M1419 302L1420 303L1419 302z"/>
<path style="fill:#9aabc4; stroke:none;" d="M1564 302L1565 303L1564 302M978 303L978 306L979 306L978 303z"/>
<path style="fill:#5975b0; stroke:none;" d="M1028 303L1029 304L1028 303z"/>
<path style="fill:#9aabc4; stroke:none;" d="M1296 303L1296 306L1297 306L1296 303M1366 303L1367 304L1366 303M1510 303L1511 304L1510 303M1028.33 304.667L1028.67 305.333L1028.33 304.667M1246.33 304.667L1246.67 305.333L1246.33 304.667z"/>
<path style="fill:#5975b0; stroke:none;" d="M1420 304L1421 305L1420 304M1510 304L1511 305L1510 304M1563 304L1564 305L1563 304z"/>
<path style="fill:#9aabc4; stroke:none;" d="M1088 305L1088 306L1094 306L1088 305M1128 305L1128 306L1135 306L1128 305M1170 305L1170 306L1177 306L1170 305M1213 305L1213 306L1220 306L1213 305M1367 305L1368 306L1367 305z"/>
<path style="fill:#5975b0; stroke:none;" d="M978 306L978 309L979 309L978 306z"/>
<path style="fill:#9aabc4; stroke:none;" d="M1050 306L1050 307L1057 307L1057 344L1058 344L1058 306L1050 306M1071 306L1071 344L1072 344L1072 307L1077 307L1071 306M1085 306L1086 307L1085 306z"/>
<path style="fill:#5975b0; stroke:none;" d="M1078 311L1072 307L1072 344L1079 344C1079 336.395 1076.87 324.921 1080.46 318.019C1082.58 313.94 1087.54 310.814 1091.87 313.757C1099.28 318.802 1096 336.212 1096 344L1103 344C1103 331.787 1107.6 300.01 1086 306.652C1083.1 307.543 1080.57 309.454 1078 311z"/>
<path style="fill:#9aabc4; stroke:none;" d="M1096 306L1097 307L1096 306M1124 306L1125 307L1124 306z"/>
<path style="fill:#5975b0; stroke:none;" d="M1147 341L1145 335C1139.82 336.685 1133.5 339.479 1128.04 337.258C1124.83 335.952 1120.5 329.922 1124.41 327.028C1128.97 323.655 1141.47 326 1147 326C1147 322.403 1147.37 318.513 1146.44 315.004C1143.69 304.654 1127.44 302.916 1120.13 309.394C1107.06 320.981 1116.37 344.586 1133 344.289C1138.02 344.2 1142.37 342.783 1147 341z"/>
<path style="fill:#9aabc4; stroke:none;" d="M1138.67 306.333L1139.33 306.667L1138.67 306.333M1166.67 306.333L1167.33 306.667L1166.67 306.333z"/>
<path style="fill:#5975b0; stroke:none;" d="M1161 334L1159 340C1167.84 345.023 1195.4 347.358 1188.26 329.015C1184.63 319.684 1174.02 324.952 1168.38 319.412C1160.31 311.49 1181.44 313.473 1184 314L1186 308C1179.31 306.471 1171.6 304.327 1165.02 307.573C1159.21 310.434 1156.46 319.427 1161.57 324.347C1165.97 328.587 1178.77 325.544 1180.65 332.104C1183.63 342.485 1164.04 335.247 1161 334z"/>
<path style="fill:#9aabc4; stroke:none;" d="M1180.67 306.333L1181.33 306.667L1180.67 306.333M1209 306L1210 307L1209 306z"/>
<path style="fill:#5975b0; stroke:none;" d="M1227 343L1226 337C1221.95 337.512 1216.89 339.046 1213.05 336.972C1206.4 333.377 1205.95 319.31 1211.28 314.434C1216.68 309.49 1223.75 315.637 1227 308C1220.65 305.321 1210.71 304.261 1205.23 309.394C1198.52 315.675 1198.5 336.29 1206.21 341.852C1211.92 345.971 1220.62 344.188 1227 343z"/>
<path style="fill:#9aabc4; stroke:none;" d="M1223.67 306.333L1224.33 306.667L1223.67 306.333z"/>
<path style="fill:#5975b0; stroke:none;" d="M1296.33 306.667L1296.67 307.333L1296.33 306.667z"/>
<path style="fill:#9aabc4; stroke:none;" d="M1421 306L1422 307L1421 306z"/>
<path style="fill:#5975b0; stroke:none;" d="M1509 306L1510 307L1509 306M1562 306L1563 307L1562 306M1050 307L1050 344L1057 344L1057 307L1050 307z"/>
<path style="fill:#9aabc4; stroke:none;" d="M1083 307L1084 308L1083 307M1098 307L1099 308L1098 307M1122 307L1123 308L1122 307M1141 307L1142 308L1141 307M1164 307L1165 308L1164 307M1183.67 307.333L1184.33 307.667L1183.67 307.333M1207 307L1208 308L1207 307M1226 307L1227 308L1226 307z"/>
<path style="fill:#5975b0; stroke:none;" d="M1368 307L1369 308L1368 307z"/>
<path style="fill:#9aabc4; stroke:none;" d="M1562 307L1563 308L1562 307z"/>
<path style="fill:#5975b0; stroke:none;" d="M1027.33 308.667L1027.67 309.333L1027.33 308.667z"/>
<path style="fill:#9aabc4; stroke:none;" d="M1077 308L1078 309L1077 308M1081 308L1082 309L1081 308M1099 308L1100 309L1099 308M1120 308L1121 309L1120 308M1142 308L1143 309L1142 308M1186.33 308.667L1186.67 309.333L1186.33 308.667z"/>
<path style="fill:#5975b0; stroke:none;" d="M1247.33 308.667L1247.67 309.333L1247.33 308.667z"/>
<path style="fill:#9aabc4; stroke:none;" d="M1422 308L1423 309L1422 308M1508 308L1509 309L1508 308M1080 309L1081 310L1080 309M1100 309L1101 310L1100 309M1119 309L1120 310L1119 309M1161 309L1162 310L1161 309M1204 309L1205 310L1204 309M1226.33 309.667L1226.67 310.333L1226.33 309.667z"/>
<path style="fill:#5975b0; stroke:none;" d="M1369 309L1370 310L1369 309z"/>
<path style="fill:#9aabc4; stroke:none;" d="M1561 309L1562 310L1561 309M1027 310L1027 314L1028 314L1027 310M1078.67 310.333L1079.33 310.667L1078.67 310.333M1118 310L1119 311L1118 310M1144 310L1145 311L1144 310M1160 310L1161 311L1160 310M1247 310L1247 313L1248 313L1247 310M1369 310L1370 311L1369 310M1423 310L1424 311L1423 310M1507 310L1508 311L1507 310M1101 311L1102 312L1101 311M1117 311L1118 312L1117 311M1145 311L1146 312L1145 311M1185 311L1186 312L1185 311z"/>
<path style="fill:#5975b0; stroke:none;" d="M1370 311L1371 312L1370 311M1423 311L1424 312L1423 311z"/>
<path style="fill:#9aabc4; stroke:none;" d="M1560 311L1561 312L1560 311M1086.67 312.333L1087.33 312.667L1086.67 312.333M1089.67 312.333L1090.33 312.667L1089.67 312.333M1128.67 312.333L1129.33 312.667L1128.67 312.333z"/>
<path style="fill:#9aabc4; stroke:none;" d="M1133 312L1133 313L1136 313L1133 312M1159 312L1160 313L1159 312M1170.67 312.333L1171.33 312.667L1170.67 312.333M1175 312L1175 313L1178 313L1175 312M1202 312L1203 313L1202 312M1213 312L1213 313L1216 313L1213 312M1218 312L1218 313L1222 313L1218 312M1225 312L1226 313L1225 312M1297 312L1297 320L1298 320L1297 312M1370 312L1371 313L1370 312M1506 312L1507 313L1506 312M977 313L977 338L978 338L977 313M1083 313L1084 314L1083 313M1102 313L1102 317L1103 317L1102 313M1116.33 313.667L1116.67 314.333L1116.33 313.667M1125 313L1126 314L1125 313M1137 313L1138 314L1137 313M1146.33 313.667L1146.67 314.333L1146.33 313.667M1168 313L1169 314L1168 313M1180.67 313.333L1181.33 313.667L1180.67 313.333M1184 313L1183 315L1185 315L1184 313M1211 313L1212 314L1211 313M1223.67 313.333L1224.33 313.667L1223.67 313.333z"/>
<path style="fill:#5975b0; stroke:none;" d="M1424 313L1425 314L1424 313M1506 313L1507 314L1506 313M1559 313L1560 314L1559 313z"/>
<path style="fill:#9aabc4; stroke:none;" d="M1082 314L1083 315L1082 314M1124 314L1125 315L1124 314M1138 314L1139 315L1138 314M1210 314L1211 315L1210 314M1371 314L1372 315L1371 314M1081 315L1082 316L1081 315M1094 315L1095 316L1094 315M1123 315L1124 316L1123 315M1158 315L1158 320L1159 320L1158 315M1166 315L1167 316L1166 315M1201.33 315.667L1201.67 316.333L1201.33 315.667M1209.33 315.667L1209.67 316.333L1209.33 315.667M1425 315L1426 316L1425 315z"/>
<path style="fill:#5975b0; stroke:none;" d="M1505 315L1506 316L1505 315M1558 315L1559 316L1558 315z"/>
<path style="fill:#9aabc4; stroke:none;" d="M1115 316L1115 321L1116 321L1115 316M1139.33 316.667L1139.67 317.333L1139.33 316.667z"/>
<path style="fill:#5975b0; stroke:none;" d="M1372 316L1373 317L1372 316z"/>
<path style="fill:#9aabc4; stroke:none;" d="M1558 316L1559 317L1558 316z"/>
<path style="fill:#5975b0; stroke:none;" d="M1248 317L1248 322L1249 322L1248 317z"/>
<path style="fill:#9aabc4; stroke:none;" d="M1426 317L1427 318L1426 317M1504 317L1505 318L1504 317z"/>
<path style="fill:#5975b0; stroke:none;" d="M1026 318L1026 332L1027 332L1026 318z"/>
<path style="fill:#9aabc4; stroke:none;" d="M1095 318L1095 344L1096 344L1095 318M1122.33 318.667L1122.67 319.333L1122.33 318.667M1147 318L1147 322L1148 322L1147 318M1166 318L1167 319L1166 318M1208 318L1208 322L1209 322L1208 318z"/>
<path style="fill:#5975b0; stroke:none;" d="M1373 318L1374 319L1373 318M1426 318L1427 319L1426 318z"/>
<path style="fill:#9aabc4; stroke:none;" d="M1557 318L1558 319L1557 318M1079.33 319.667L1079.67 320.333L1079.33 319.667M1167 319L1168 320L1167 319M1373 319L1374 320L1373 319M1427 319L1428 320L1427 319M1503 319L1504 320L1503 319M1123 320L1123 321L1140 321L1123 320M1168.67 320.333L1169.33 320.667L1168.67 320.333z"/>
<path style="fill:#5975b0; stroke:none;" d="M1297 320L1297 330L1298 330L1297 320M1374 320L1375 321L1374 320M1427 320L1428 321L1427 320z"/>
<path style="fill:#9aabc4; stroke:none;" d="M1556 320L1557 321L1556 320M1173 321L1173 322L1177 322L1173 321M1200 321L1200 330L1201 330L1200 321M1374 321L1375 322L1374 321M1502 321L1503 322L1502 321M1159 322L1160 323L1159 322M1180.67 322.333L1181.33 322.667L1180.67 322.333M1248 322L1248 328L1249 328L1248 322M1428 322L1429 323L1428 322z"/>
<path style="fill:#5975b0; stroke:none;" d="M1502 322L1503 323L1502 322M1555 322L1556 323L1555 322z"/>
<path style="fill:#9aabc4; stroke:none;" d="M1160 323L1161 324L1160 323M1183 323L1184 324L1183 323M1375 323L1376 324L1375 323M1185 324L1186 325L1185 324M1429 324L1430 325L1429 324z"/>
<path style="fill:#5975b0; stroke:none;" d="M1501 324L1502 325L1501 324M1554 324L1555 325L1554 324z"/>
<path style="fill:#9aabc4; stroke:none;" d="M1162 325L1163 326L1162 325M1186 325L1187 326L1186 325z"/>
<path style="fill:#5975b0; stroke:none;" d="M1376 325L1377 326L1376 325z"/>
<path style="fill:#9aabc4; stroke:none;" d="M1554 325L1555 326L1554 325M1123 326L1123 327L1147 327L1123 326M1164 326L1165 327L1164 326M1187 326L1188 327L1187 326M1430 326L1431 327L1430 326M1500 326L1501 327L1500 326M1122 327L1122 330L1123 330L1122 327M1168 327L1168 328L1171 328L1168 327M1208 327L1208 332L1209 332L1208 327z"/>
<path style="fill:#5975b0; stroke:none;" d="M1377 327L1378 328L1377 327M1430 327L1431 328L1430 327z"/>
<path style="fill:#9aabc4; stroke:none;" d="M1553 327L1554 328L1553 327M1175 328L1175 329L1178 329L1175 328M1188 328L1189 329L1188 328z"/>
<path style="fill:#5975b0; stroke:none;" d="M1248 328L1248 333L1249 333L1248 328z"/>
<path style="fill:#9aabc4; stroke:none;" d="M1377 328L1378 329L1377 328M1431 328L1432 329L1431 328M1499 328L1500 329L1499 328M1115 329L1115 333L1116 333L1115 329M1179 329L1180 330L1179 329z"/>
<path style="fill:#5975b0; stroke:none;" d="M1378 329L1379 330L1378 329M1431 329L1432 330L1431 329M1499 329L1500 330L1499 329z"/>
<path style="fill:#9aabc4; stroke:none;" d="M1552 329L1553 330L1552 329M1297 330L1297 339L1298 339L1297 330M1378 330L1379 331L1378 330M1498 330L1499 331L1498 330M1181 331L1181 335L1182 335L1181 331M1432 331L1433 332L1432 331z"/>
<path style="fill:#5975b0; stroke:none;" d="M1498 331L1499 332L1498 331M1551 331L1552 332L1551 331z"/>
<path style="fill:#9aabc4; stroke:none;" d="M1379 332L1380 333L1379 332M1123 333L1124 334L1123 333M1209.33 333.667L1209.67 334.333L1209.33 333.667M1433 333L1434 334L1433 333z"/>
<path style="fill:#5975b0; stroke:none;" d="M1497 333L1498 334L1497 333M1550 333L1551 334L1550 333z"/>
<path style="fill:#9aabc4; stroke:none;" d="M1162 334L1163 335L1162 334M1201.33 334.667L1201.67 335.333L1201.33 334.667z"/>
<path style="fill:#5975b0; stroke:none;" d="M1380 334L1381 335L1380 334z"/>
<path style="fill:#9aabc4; stroke:none;" d="M1550 334L1551 335L1550 334M1116.33 335.667L1116.67 336.333L1116.33 335.667M1124 335L1125 336L1124 335M1143 335L1144 336L1143 335M1160 335L1161 336L1160 335M1164 335L1165 336L1164 335M1434 335L1435 336L1434 335M1496 335L1497 336L1496 335M1027 336L1027 340L1028 340L1027 336M1125 336L1126 337L1125 336M1140 336L1141 337L1140 336M1145 336L1146 337L1145 336M1166 336L1167 337L1166 336M1188.33 336.667L1188.67 337.333L1188.33 336.667M1225 336L1226 337L1225 336z"/>
<path style="fill:#5975b0; stroke:none;" d="M1381 336L1382 337L1381 336M1434 336L1435 337L1434 336z"/>
<path style="fill:#9aabc4; stroke:none;" d="M1549 336L1550 337L1549 336M1127.67 337.333L1128.33 337.667L1127.67 337.333M1136.67 337.333L1137.33 337.667L1136.67 337.333M1159 337L1160 338L1159 337M1169.67 337.333L1170.33 337.667L1169.67 337.333M1177.67 337.333L1178.33 337.667L1177.67 337.333M1202 337L1203 338L1202 337M1212.67 337.333L1213.33 337.667L1212.67 337.333M1221.67 337.333L1222.33 337.667L1221.67 337.333M1247 337L1247 340L1248 340L1247 337M1381 337L1382 338L1381 337M1495 337L1496 338L1495 337M1117 338L1118 339L1117 338M1146 338L1147 339L1146 338M1158.33 338.667L1158.67 339.333L1158.33 338.667M1226 338L1227 339L1226 338z"/>
<path style="fill:#5975b0; stroke:none;" d="M1382 338L1383 339L1382 338M1435 338L1436 339L1435 338M1495 338L1496 339L1495 338z"/>
<path style="fill:#9aabc4; stroke:none;" d="M1548 338L1549 339L1548 338M1203 339L1204 340L1203 339M1382 339L1383 340L1382 339M1494 339L1495 340L1494 339z"/>
<path style="fill:#5975b0; stroke:none;" d="M1027.33 340.667L1027.67 341.333L1027.33 340.667z"/>
<path style="fill:#9aabc4; stroke:none;" d="M1159 340L1160 341L1159 340M1186 340L1187 341L1186 340M1227 340L1227 343L1228 343L1227 340z"/>
<path style="fill:#5975b0; stroke:none;" d="M1247.33 340.667L1247.67 341.333L1247.33 340.667z"/>
<path style="fill:#9aabc4; stroke:none;" d="M1436 340L1437 341L1436 340z"/>
<path style="fill:#5975b0; stroke:none;" d="M1494 340L1495 341L1494 340M1547 340L1548 341L1547 340M978.333 341.667L978.667 342.333L978.333 341.667z"/>
<path style="fill:#9aabc4; stroke:none;" d="M1145 341L1146 342L1145 341M1161 341L1162 342L1161 341M1185 341L1186 342L1185 341M1205 341L1206 342L1205 341M1383 341L1384 342L1383 341M1121 342L1122 343L1121 342M1143 342L1144 343L1143 342M1163 342L1164 343L1163 342M1184 342L1185 343L1184 342M1206 342L1207 343L1206 342z"/>
<path style="fill:#5975b0; stroke:none;" d="M1296.33 342.667L1296.67 343.333L1296.33 342.667z"/>
<path style="fill:#9aabc4; stroke:none;" d="M1437 342L1438 343L1437 342z"/>
<path style="fill:#5975b0; stroke:none;" d="M1493 342L1494 343L1493 342M1546 342L1547 343L1546 342z"/>
<path style="fill:#9aabc4; stroke:none;" d="M978 343L978 347L979 347L978 343M1123 343L1124 344L1123 343M1140 343L1141 344L1140 343M1165.67 343.333L1166.33 343.667L1165.67 343.333M1182 343L1183 344L1182 343M1208 343L1209 344L1208 343M1224.67 343.333L1225.33 343.667L1224.67 343.333z"/>
<path style="fill:#5975b0; stroke:none;" d="M1384 343L1385 344L1384 343z"/>
<path style="fill:#9aabc4; stroke:none;" d="M1546 343L1547 344L1546 343M1028.33 344.667L1028.67 345.333L1028.33 344.667M1126 344L1126 345L1132 345L1126 344M1133 344L1133 345L1138 345L1133 344M1169 344L1169 345L1174 345L1169 344M1175 344L1175 345L1180 345L1175 344M1211 344L1211 345L1216 345L1211 344M1217 344L1217 345L1222 345L1217 344M1246.33 344.667L1246.67 345.333L1246.33 344.667M1296 344L1296 348L1297 348L1296 344M1438 344L1439 345L1438 344M1492 344L1493 345L1492 344z"/>
<path style="fill:#5975b0; stroke:none;" d="M1385 345L1386 346L1385 345M1438 345L1439 346L1438 345z"/>
<path style="fill:#9aabc4; stroke:none;" d="M1545 345L1546 346L1545 345z"/>
<path style="fill:#5975b0; stroke:none;" d="M1028 346L1029 347L1028 346M1246.33 346.667L1246.67 347.333L1246.33 346.667z"/>
<path style="fill:#9aabc4; stroke:none;" d="M1385 346L1386 347L1385 346M1491 346L1492 347L1491 346z"/>
<path style="fill:#5975b0; stroke:none;" d="M1386 347L1387 348L1386 347M1439 347L1440 348L1439 347M1491 347L1492 348L1491 347z"/>
<path style="fill:#9aabc4; stroke:none;" d="M1544 347L1545 348L1544 347M1386 348L1387 349L1386 348M1490 348L1491 349L1490 348z"/>
<path style="fill:#5975b0; stroke:none;" d="M979.333 349.667L979.667 350.333L979.333 349.667z"/>
<path style="fill:#9aabc4; stroke:none;" d="M1029.33 349.667L1029.67 350.333L1029.33 349.667M1245.33 349.667L1245.67 350.333L1245.33 349.667M1440 349L1441 350L1440 349z"/>
<path style="fill:#5975b0; stroke:none;" d="M1490 349L1491 350L1490 349M1543 349L1544 350L1543 349M1295 350L1296 351L1295 350z"/>
<path style="fill:#9aabc4; stroke:none;" d="M1387 350L1388 351L1387 350M979.333 351.667L979.667 352.333L979.333 351.667z"/>
<path style="fill:#5975b0; stroke:none;" d="M1029 351L1030 352L1029 351M1245 351L1246 352L1245 351z"/>
<path style="fill:#9aabc4; stroke:none;" d="M1295 351L1295 354L1296 354L1295 351M1441 351L1442 352L1441 351z"/>
<path style="fill:#5975b0; stroke:none;" d="M1489 351L1490 352L1489 351M1542 351L1543 352L1542 351M1388 352L1389 353L1388 352M1441 352L1442 353L1441 352z"/>
<path style="fill:#9aabc4; stroke:none;" d="M1542 352L1543 353L1542 352M1030.33 353.667L1030.67 354.333L1030.33 353.667M1244.33 353.667L1244.67 354.333L1244.33 353.667M1442 353L1443 354L1442 353M1488 353L1489 354L1488 353z"/>
<path style="fill:#5975b0; stroke:none;" d="M1389 354L1390 355L1389 354M1442 354L1443 355L1442 354z"/>
<path style="fill:#9aabc4; stroke:none;" d="M1541 354L1542 355L1541 354z"/>
<path style="fill:#5975b0; stroke:none;" d="M980.333 355.667L980.667 356.333L980.333 355.667M1244 355L1245 356L1244 355z"/>
<path style="fill:#9aabc4; stroke:none;" d="M1389 355L1390 356L1389 355M1487 355L1488 356L1487 355z"/>
<path style="fill:#5975b0; stroke:none;" d="M1294 356L1295 357L1294 356M1443 356L1444 357L1443 356M1487 356L1488 357L1487 356z"/>
<path style="fill:#9aabc4; stroke:none;" d="M1540 356L1541 357L1540 356M980 357L981 358L980 357M1031 357L1032 358L1031 357M1243 357L1244 358L1243 357M1294.33 357.667L1294.67 358.333L1294.33 357.667M1390 357L1391 358L1390 357M1486 357L1487 358L1486 357z"/>
<path style="fill:#5975b0; stroke:none;" d="M1031 358L1032 359L1031 358M1243 358L1244 359L1243 358z"/>
<path style="fill:#9aabc4; stroke:none;" d="M1444 358L1445 359L1444 358z"/>
<path style="fill:#5975b0; stroke:none;" d="M1486 358L1487 359L1486 358M1539 358L1540 359L1539 358z"/>
<path style="fill:#9aabc4; stroke:none;" d="M1391 359L1392 360L1391 359z"/>
<path style="fill:#5975b0; stroke:none;" d="M981 360L982 361L981 360z"/>
<path style="fill:#9aabc4; stroke:none;" d="M1032 360L1033 361L1032 360M1242 360L1243 361L1242 360z"/>
<path style="fill:#5975b0; stroke:none;" d="M1293 360L1294 361L1293 360z"/>
<path style="fill:#9aabc4; stroke:none;" d="M1445 360L1446 361L1445 360z"/>
<path style="fill:#5975b0; stroke:none;" d="M1485 360L1486 361L1485 360M1538 360L1539 361L1538 360z"/>
<path style="fill:#9aabc4; stroke:none;" d="M981.333 361.667L981.667 362.333L981.333 361.667z"/>
<path style="fill:#5975b0; stroke:none;" d="M1032 361L1033 362L1032 361M1242 361L1243 362L1242 361z"/>
<path style="fill:#9aabc4; stroke:none;" d="M1293.33 361.667L1293.67 362.333L1293.33 361.667z"/>
<path style="fill:#5975b0; stroke:none;" d="M1392 361L1393 362L1392 361M1445 361L1446 362L1445 361z"/>
<path style="fill:#9aabc4; stroke:none;" d="M1538 361L1539 362L1538 361M1446 362L1447 363L1446 362M1484 362L1485 363L1484 362M1033 363L1034 364L1033 363M1241 363L1242 364L1241 363z"/>
<path style="fill:#5975b0; stroke:none;" d="M1393 363L1394 364L1393 363M1446 363L1447 364L1446 363z"/>
<path style="fill:#9aabc4; stroke:none;" d="M1537 363L1538 364L1537 363z"/>
<path style="fill:#5975b0; stroke:none;" d="M982 364L983 365L982 364z"/>
<path style="fill:#9aabc4; stroke:none;" d="M1393 364L1394 365L1393 364M1483 364L1484 365L1483 364M982.333 365.667L982.667 366.333L982.333 365.667M1034 365L1035 366L1034 365M1240 365L1241 366L1240 365z"/>
<path style="fill:#5975b0; stroke:none;" d="M1292 365L1293 366L1292 365z"/>
<path style="fill:#9aabc4; stroke:none;" d="M1447 365L1448 366L1447 365z"/>
<path style="fill:#5975b0; stroke:none;" d="M1483 365L1484 366L1483 365z"/>
<path style="fill:#9aabc4; stroke:none;" d="M1536 365L1537 366L1536 365z"/>
<path style="fill:#5975b0; stroke:none;" d="M1034 366L1035 367L1034 366M1240 366L1241 367L1240 366z"/>
<path style="fill:#9aabc4; stroke:none;" d="M1292 366L1293 367L1292 366M1394 366L1395 367L1394 366M1482 366L1483 367L1482 366M1448 367L1449 368L1448 367z"/>
<path style="fill:#5975b0; stroke:none;" d="M1482 367L1483 368L1482 367M1535 367L1536 368L1535 367M983 368L984 369L983 368M1035 368L1036 369L1035 368z"/>
<path style="fill:#9aabc4; stroke:none;" d="M1239 368L1240 369L1239 368z"/>
<path style="fill:#5975b0; stroke:none;" d="M1291 368L1292 369L1291 368z"/>
<path style="fill:#9aabc4; stroke:none;" d="M1395 368L1396 369L1395 368M983 369L984 370L983 369M1291 369L1292 370L1291 369M1449 369L1450 370L1449 369M1481 369L1482 370L1481 369z"/>
<path style="fill:#5975b0; stroke:none;" d="M1534 369L1535 370L1534 369z"/>
<path style="fill:#9aabc4; stroke:none;" d="M1036 370L1037 371L1036 370M1238 370L1239 371L1238 370z"/>
<path style="fill:#5975b0; stroke:none;" d="M1396 370L1397 371L1396 370M1449 370L1450 371L1449 370z"/>
<path style="fill:#9aabc4; stroke:none;" d="M1534 370L1535 371L1534 370z"/>
<path style="fill:#5975b0; stroke:none;" d="M984 371L985 372L984 371z"/>
<path style="fill:#9aabc4; stroke:none;" d="M1480 371L1481 372L1480 371M984 372L985 373L984 372M1037 372L1038 373L1037 372M1237 372L1238 373L1237 372M1290 372L1291 373L1290 372z"/>
<path style="fill:#5975b0; stroke:none;" d="M1397 372L1398 373L1397 372M1450 372L1451 373L1450 372z"/>
<path style="fill:#9aabc4; stroke:none;" d="M1533 372L1534 373L1533 372M1397 373L1398 374L1397 373M1479 373L1480 374L1479 373M1038 374L1039 375L1038 374M1236 374L1237 375L1236 374M1451 374L1452 375L1451 374z"/>
<path style="fill:#5975b0; stroke:none;" d="M1479 374L1480 375L1479 374z"/>
<path style="fill:#9aabc4; stroke:none;" d="M1532 374L1533 375L1532 374z"/>
<path style="fill:#5975b0; stroke:none;" d="M985 375L986 376L985 375z"/>
<path style="fill:#9aabc4; stroke:none;" d="M1289 375L1290 376L1289 375M1398 375L1399 376L1398 375M1039 376L1040 377L1039 376M1235 376L1236 377L1235 376M1452 376L1453 377L1452 376z"/>
<path style="fill:#5975b0; stroke:none;" d="M1478 376L1479 377L1478 376M1531 376L1532 377L1531 376z"/>
<path style="fill:#9aabc4; stroke:none;" d="M1399 377L1400 378L1399 377M986 378L987 379L986 378z"/>
<path style="fill:#5975b0; stroke:none;" d="M1040 378L1041 379L1040 378M1234 378L1235 379L1234 378z"/>
<path style="fill:#9aabc4; stroke:none;" d="M1288 378L1289 379L1288 378M1453 378L1454 379L1453 378M1477 378L1478 379L1477 378z"/>
<path style="fill:#5975b0; stroke:none;" d="M1530 378L1531 379L1530 378z"/>
<path style="fill:#9aabc4; stroke:none;" d="M1041 379L1042 380L1041 379z"/>
<path style="fill:#5975b0; stroke:none;" d="M1400 379L1401 380L1400 379M1453 379L1454 380L1453 379z"/>
<path style="fill:#9aabc4; stroke:none;" d="M1530 379L1531 380L1530 379z"/>
<path style="fill:#5975b0; stroke:none;" d="M987 380L988 381L987 380M1233 380L1234 381L1233 380M1287 380L1288 381L1287 380z"/>
<path style="fill:#9aabc4; stroke:none;" d="M1476 380L1477 381L1476 380M987 381L988 382L987 381M1042 381L1043 382L1042 381M1232 381L1233 382L1232 381M1287 381L1288 382L1287 381z"/>
<path style="fill:#5975b0; stroke:none;" d="M1401 381L1402 382L1401 381M1454 381L1455 382L1454 381z"/>
<path style="fill:#9aabc4; stroke:none;" d="M1529 381L1530 382L1529 381M1401 382L1402 383L1401 382M1475 382L1476 383L1475 382z"/>
<path style="fill:#5975b0; stroke:none;" d="M988 383L989 384L988 383M1043 383L1044 384L1043 383M1231 383L1232 384L1231 383M1286 383L1287 384L1286 383z"/>
<path style="fill:#9aabc4; stroke:none;" d="M1455 383L1456 384L1455 383z"/>
<path style="fill:#5975b0; stroke:none;" d="M1475 383L1476 384L1475 383z"/>
<path style="fill:#9aabc4; stroke:none;" d="M1528 383L1529 384L1528 383M1044 384L1045 385L1044 384M1230 384L1231 385L1230 384M1402 384L1403 385L1402 384z"/>
<path style="fill:#5975b0; stroke:none;" d="M989 385L990 386L989 385M1285 385L1286 386L1285 385z"/>
<path style="fill:#9aabc4; stroke:none;" d="M1456 385L1457 386L1456 385z"/>
<path style="fill:#5975b0; stroke:none;" d="M1474 385L1475 386L1474 385M1527 385L1528 386L1527 385z"/>
<path style="fill:#9aabc4; stroke:none;" d="M989 386L990 387L989 386z"/>
<path style="fill:#5975b0; stroke:none;" d="M1045 386L1046 387L1045 386M1229 386L1230 387L1229 386z"/>
<path style="fill:#9aabc4; stroke:none;" d="M1285 386L1286 387L1285 386M1403 386L1404 387L1403 386M1046 387L1047 388L1046 387M1228 387L1229 388L1228 387M1457 387L1458 388L1457 387M1473 387L1474 388L1473 387z"/>
<path style="fill:#5975b0; stroke:none;" d="M1526 387L1527 388L1526 387z"/>
<path style="fill:#9aabc4; stroke:none;" d="M990 388L991 389L990 388M1284 388L1285 389L1284 388z"/>
<path style="fill:#5975b0; stroke:none;" d="M1404 388L1405 389L1404 388M1457 388L1458 389L1457 388z"/>
<path style="fill:#9aabc4; stroke:none;" d="M1526 388L1527 389L1526 388z"/>
<path style="fill:#5975b0; stroke:none;" d="M1227 389L1228 390L1227 389z"/>
<path style="fill:#9aabc4; stroke:none;" d="M1472 389L1473 390L1472 389M991 390L992 391L991 390z"/>
<path style="fill:#5975b0; stroke:none;" d="M1048 390L1049 391L1048 390M1226 390L1227 391L1226 390z"/>
<path style="fill:#9aabc4; stroke:none;" d="M1283 390L1284 391L1283 390z"/>
<path style="fill:#5975b0; stroke:none;" d="M1405 390L1406 391L1405 390M1458 390L1459 391L1458 390z"/>
<path style="fill:#9aabc4; stroke:none;" d="M1525 390L1526 391L1525 390M1049 391L1050 392L1049 391M1225 391L1226 392L1225 391M1405 391L1406 392L1405 391M1471 391L1472 392L1471 391M992 392L993 393L992 392M1050 392L1051 393L1050 392M1282 392L1283 393L1282 392M1459 392L1460 393L1459 392z"/>
<path style="fill:#5975b0; stroke:none;" d="M1471 392L1472 393L1471 392z"/>
<path style="fill:#9aabc4; stroke:none;" d="M1524 392L1525 393L1524 392M1406 393L1407 394L1406 393M993 394L994 395L993 394z"/>
<path style="fill:#5975b0; stroke:none;" d="M1051 394L1052 395L1051 394M1223 394L1224 395L1223 394z"/>
<path style="fill:#9aabc4; stroke:none;" d="M1281 394L1282 395L1281 394M1460 394L1461 395L1460 394z"/>
<path style="fill:#5975b0; stroke:none;" d="M1470 394L1471 395L1470 394M1523 394L1524 395L1523 394M1052 395L1053 396L1052 395M1222 395L1223 396L1222 395z"/>
<path style="fill:#9aabc4; stroke:none;" d="M1407 395L1408 396L1407 395z"/>
<path style="fill:#5975b0; stroke:none;" d="M1460 395L1461 396L1460 395z"/>
<path style="fill:#9aabc4; stroke:none;" d="M994 396L995 397L994 396z"/>
<path style="fill:#5975b0; stroke:none;" d="M1053 396L1054 397L1053 396M1221 396L1222 397L1221 396z"/>
<path style="fill:#9aabc4; stroke:none;" d="M1280 396L1281 397L1280 396M1461 396L1462 397L1461 396M1469 396L1470 397L1469 396z"/>
<path style="fill:#5975b0; stroke:none;" d="M1522 396L1523 397L1522 396M1054 397L1055 398L1054 397z"/>
<path style="fill:#9aabc4; stroke:none;" d="M1220 397L1221 398L1220 397z"/>
<path style="fill:#5975b0; stroke:none;" d="M1408 397L1409 398L1408 397M1461 397L1462 398L1461 397z"/>
<path style="fill:#9aabc4; stroke:none;" d="M1522 397L1523 398L1522 397M995 398L996 399L995 398M1055 398L1056 399L1055 398M1219 398L1220 399L1219 398M1279 398L1280 399L1279 398M1468 398L1469 399L1468 398z"/>
<path style="fill:#5975b0; stroke:none;" d="M1521 398L1522 399L1521 398z"/>
<path style="fill:#9aabc4; stroke:none;" d="M1056 399L1057 400L1056 399M1218 399L1219 400L1218 399z"/>
<path style="fill:#5975b0; stroke:none;" d="M1409 399L1410 400L1409 399z"/>
<path style="fill:#9aabc4; stroke:none;" d="M1462 399L1463 400L1462 399M1521 399L1522 400L1521 399M996 400L997 401L996 400M1057 400L1058 401L1057 400M1217 400L1218 401L1217 400M1278 400L1279 401L1278 400M1409 400L1410 401L1409 400M1467 400L1468 401L1467 400z"/>
<path style="fill:#5975b0; stroke:none;" d="M997 401L998 402L997 401z"/>
<path style="fill:#9aabc4; stroke:none;" d="M1058 401L1059 402L1058 401M1216 401L1217 402L1216 401z"/>
<path style="fill:#5975b0; stroke:none;" d="M1277 401L1278 402L1277 401z"/>
<path style="fill:#9aabc4; stroke:none;" d="M1463 401L1464 402L1463 401z"/>
<path style="fill:#5975b0; stroke:none;" d="M1467 401L1468 402L1467 401z"/>
<path style="fill:#9aabc4; stroke:none;" d="M1520 401L1521 402L1520 401M1059 402L1060 403L1059 402M1215 402L1216 403L1215 402M1410 402L1411 403L1410 402z"/>
<path style="fill:#5975b0; stroke:none;" d="M998 403L999 404L998 403z"/>
<path style="fill:#9aabc4; stroke:none;" d="M1060 403L1061 404L1060 403M1214 403L1215 404L1214 403M1276 403L1277 404L1276 403M1464 403L1465 404L1464 403z"/>
<path style="fill:#5975b0; stroke:none;" d="M1466 403L1467 404L1466 403M1519 403L1520 404L1519 403M1061 404L1062 405L1061 404z"/>
<path style="fill:#9aabc4; stroke:none;" d="M1213 404L1214 405L1213 404M1411 404L1412 405L1411 404z"/>
<path style="fill:#5975b0; stroke:none;" d="M1464 404L1465 405L1464 404z"/>
<path style="fill:#9aabc4; stroke:none;" d="M999 405L1000 406L999 405z"/>
<path style="fill:#5975b0; stroke:none;" d="M1062 405L1063 406L1062 405M1212 405L1213 406L1212 405z"/>
<path style="fill:#9aabc4; stroke:none;" d="M1275 405L1276 406L1275 405z"/>
<path style="fill:#5975b0; stroke:none;" d="M1465 405L1466 406L1465 405M1518 405L1519 406L1518 405M1000 406L1001 407L1000 406M1063 406L1064 407L1063 406M1211 406L1212 407L1211 406M1274 406L1275 407L1274 406M1412 406L1413 407L1412 406z"/>
<path style="fill:#9aabc4; stroke:none;" d="M1518 406L1519 407L1518 406z"/>
<path style="fill:#5975b0; stroke:none;" d="M1064 407L1065 408L1064 407M1210 407L1211 408L1210 407M1517 407L1518 408L1517 407z"/>
<path style="fill:#9aabc4; stroke:none;" d="M1001 408L1002 409L1001 408M1066 408L1067 409L1066 408M1273 408L1274 409L1273 408z"/>
<path style="fill:#5975b0; stroke:none;" d="M1413 408L1414 409L1413 408z"/>
<path style="fill:#9aabc4; stroke:none;" d="M1517 408L1518 409L1517 408M1067 409L1068 410L1067 409M1207 409L1208 410L1207 409z"/>
<path style="fill:#5975b0; stroke:none;" d="M1272 409L1273 410L1272 409z"/>
<path style="fill:#9aabc4; stroke:none;" d="M1413 409L1414 410L1413 409M1002 410L1003 411L1002 410z"/>
<path style="fill:#5975b0; stroke:none;" d="M1068 410L1069 411L1068 410M1206 410L1207 411L1206 410z"/>
<path style="fill:#9aabc4; stroke:none;" d="M1516 410L1517 411L1516 410M1003 411L1004 412L1003 411z"/>
<path style="fill:#5975b0; stroke:none;" d="M1205 411L1206 412L1205 411z"/>
<path style="fill:#9aabc4; stroke:none;" d="M1271 411L1272 412L1271 411M1414 411L1415 412L1414 411z"/>
<path style="fill:#5975b0; stroke:none;" d="M1004 412L1005 413L1004 412z"/>
<path style="fill:#9aabc4; stroke:none;" d="M1071 412L1072 413L1071 412M1203 412L1204 413L1203 412z"/>
<path style="fill:#5975b0; stroke:none;" d="M1270 412L1271 413L1270 412M1515 412L1516 413L1515 412M1072 413L1073 414L1072 413M1202 413L1203 414L1202 413z"/>
<path style="fill:#9aabc4; stroke:none;" d="M1415 413L1416 414L1415 413M1005 414L1006 415L1005 414M1074 414L1075 415L1074 414M1200 414L1201 415L1200 414M1269 414L1270 415L1269 414z"/>
<path style="fill:#5975b0; stroke:none;" d="M1514 414L1515 415L1514 414M1006 415L1007 416L1006 415M1075 415L1076 416L1075 415M1199 415L1200 416L1199 415M1268 415L1269 416L1268 415M1416 415L1417 416L1416 415z"/>
<path style="fill:#9aabc4; stroke:none;" d="M1514 415L1515 416L1514 415M1077 416L1078 417L1077 416M1197 416L1198 417L1197 416z"/>
<path style="fill:#5975b0; stroke:none;" d="M1513 416L1514 417L1513 416z"/>
<path style="fill:#9aabc4; stroke:none;" d="M1007 417L1008 418L1007 417M1079 417L1080 418L1079 417M1195 417L1196 418L1195 417M1267 417L1268 418L1267 417z"/>
<path style="fill:#5975b0; stroke:none;" d="M1417 417L1418 418L1417 417z"/>
<path style="fill:#9aabc4; stroke:none;" d="M1513 417L1514 418L1513 417M1008 418L1009 419L1008 418z"/>
<path style="fill:#5975b0; stroke:none;" d="M1080 418L1081 419L1080 418M1194 418L1195 419L1194 418z"/>
<path style="fill:#9aabc4; stroke:none;" d="M1266 418L1267 419L1266 418M1417 418L1418 419L1417 418z"/>
<path style="fill:#5975b0; stroke:none;" d="M1009 419L1010 420L1009 419M1082 419L1083 420L1082 419z"/>
<path style="fill:#9aabc4; stroke:none;" d="M1192 419L1193 420L1192 419z"/>
<path style="fill:#5975b0; stroke:none;" d="M1265 419L1266 420L1265 419z"/>
<path style="fill:#9aabc4; stroke:none;" d="M1512 419L1513 420L1512 419M1084 420L1085 421L1084 420M1190 420L1191 421L1190 420z"/>
<path style="fill:#5975b0; stroke:none;" d="M1264 420L1265 421L1264 420z"/>
<path style="fill:#9aabc4; stroke:none;" d="M1418 420L1419 421L1418 420M1086 421L1087 422L1086 421M1188 421L1189 422L1188 421z"/>
<path style="fill:#5975b0; stroke:none;" d="M1511 421L1512 422L1511 421z"/>
<path style="fill:#9aabc4; stroke:none;" d="M1011 422L1012 423L1011 422M1088 422L1089 423L1088 422M1186 422L1187 423L1186 422M1263 422L1264 423L1263 422M1419 422L1420 423L1419 422z"/>
<path style="fill:#5975b0; stroke:none;" d="M1012 423L1013 424L1012 423M1090 423L1091 424L1090 423M1184 423L1185 424L1184 423z"/>
<path style="fill:#9aabc4; stroke:none;" d="M1262 423L1263 424L1262 423z"/>
<path style="fill:#5975b0; stroke:none;" d="M1510 423L1511 424L1510 423M1013 424L1014 425L1013 424M1092 424L1093 425L1092 424z"/>
<path style="fill:#9aabc4; stroke:none;" d="M1093 424L1094 425L1093 424M1181 424L1182 425L1181 424z"/>
<path style="fill:#5975b0; stroke:none;" d="M1182 424L1183 425L1182 424M1261 424L1262 425L1261 424M1420 424L1421 425L1420 424z"/>
<path style="fill:#9aabc4; stroke:none;" d="M1510 424L1511 425L1510 424z"/>
<path style="fill:#5975b0; stroke:none;" d="M1014 425L1015 426L1014 425z"/>
<path style="fill:#9aabc4; stroke:none;" d="M1095 425L1096 426L1095 425M1179 425L1180 426L1179 425z"/>
<path style="fill:#5975b0; stroke:none;" d="M1260 425L1261 426L1260 425M1509 425L1510 426L1509 425M1097 426L1098 427L1097 426z"/>
<path style="fill:#9aabc4; stroke:none;" d="M1098 426L1099 427L1098 426M1176 426L1177 427L1176 426z"/>
<path style="fill:#5975b0; stroke:none;" d="M1177 426L1178 427L1177 426M1259 426L1260 427L1259 426M1421 426L1422 427L1421 426z"/>
<path style="fill:#9aabc4; stroke:none;" d="M1509 426L1510 427L1509 426z"/>
<path style="fill:#5975b0; stroke:none;" d="M1100 427L1101 428L1100 427z"/>
<path style="fill:#9aabc4; stroke:none;" d="M1101 427L1102 428L1101 427M1173 427L1174 428L1173 427z"/>
<path style="fill:#5975b0; stroke:none;" d="M1174 427L1175 428L1174 427z"/>
<path style="fill:#9aabc4; stroke:none;" d="M1421 427L1422 428L1421 427M1016 428L1017 429L1016 428z"/>
<path style="fill:#5975b0; stroke:none;" d="M1103 428L1104 429L1103 428z"/>
<path style="fill:#9aabc4; stroke:none;" d="M1104 428L1105 429L1104 428M1170 428L1171 429L1170 428z"/>
<path style="fill:#5975b0; stroke:none;" d="M1171 428L1172 429L1171 428z"/>
<path style="fill:#9aabc4; stroke:none;" d="M1508 428L1509 429L1508 428M1017 429L1018 430L1017 429z"/>
<path style="fill:#5975b0; stroke:none;" d="M1107 429L1108 430L1107 429z"/>
<path style="fill:#9aabc4; stroke:none;" d="M1108 429L1109 430L1108 429M1166 429L1167 430L1166 429z"/>
<path style="fill:#5975b0; stroke:none;" d="M1167 429L1168 430L1167 429z"/>
<path style="fill:#9aabc4; stroke:none;" d="M1422 429L1423 430L1422 429M1018 430L1019 431L1018 430z"/>
<path style="fill:#5975b0; stroke:none;" d="M1111 430L1112 431L1111 430z"/>
<path style="fill:#9aabc4; stroke:none;" d="M1112.67 430.333L1113.33 430.667L1112.67 430.333M1161.67 430.333L1162.33 430.667L1161.67 430.333z"/>
<path style="fill:#5975b0; stroke:none;" d="M1163 430L1164 431L1163 430z"/>
<path style="fill:#9aabc4; stroke:none;" d="M1256 430L1257 431L1256 430z"/>
<path style="fill:#5975b0; stroke:none;" d="M1507 430L1508 431L1507 430z"/>
<path style="fill:#9aabc4; stroke:none;" d="M1019 431L1020 432L1019 431z"/>
<path style="fill:#5975b0; stroke:none;" d="M1115.67 431.333L1116.33 431.667L1115.67 431.333z"/>
<path style="fill:#9aabc4; stroke:none;" d="M1117 431L1117 432L1120 432L1117 431M1156.67 431.333L1157.33 431.667L1156.67 431.333z"/>
<path style="fill:#5975b0; stroke:none;" d="M1158.67 431.333L1159.33 431.667L1158.67 431.333z"/>
<path style="fill:#9aabc4; stroke:none;" d="M1255 431L1256 432L1255 431M1423 431L1424 432L1423 431M1020 432L1021 433L1020 432z"/>
<path style="fill:#5975b0; stroke:none;" d="M1122.67 432.333L1123.33 432.667L1122.67 432.333z"/>
<path style="fill:#9aabc4; stroke:none;" d="M1124 432L1124 433L1129 433L1124 432M1146 432L1146 433L1151 433L1146 432z"/>
<path style="fill:#5975b0; stroke:none;" d="M1151.67 432.333L1152.33 432.667L1151.67 432.333z"/>
<path style="fill:#9aabc4; stroke:none;" d="M1254 432L1255 433L1254 432z"/>
<path style="fill:#5975b0; stroke:none;" d="M1506 432L1507 433L1506 432M1021 433L1022 434L1021 433M1137 433L1138 434L1137 433z"/>
<path style="fill:#9aabc4; stroke:none;" d="M1253 433L1254 434L1253 433z"/>
<path style="fill:#5975b0; stroke:none;" d="M1424 433L1425 434L1424 433z"/>
<path style="fill:#9aabc4; stroke:none;" d="M1506 433L1507 434L1506 433z"/>
<path style="fill:#5975b0; stroke:none;" d="M1022 434L1023 435L1022 434z"/>
<path style="fill:#9aabc4; stroke:none;" d="M1252 434L1253 435L1252 434M1424 434L1425 435L1424 434z"/>
<path style="fill:#5975b0; stroke:none;" d="M1505 434L1506 435L1505 434z"/>
<path style="fill:#9aabc4; stroke:none;" d="M1023 435L1024 436L1023 435M1251 435L1252 436L1251 435z"/>
<path style="fill:#5975b0; stroke:none;" d="M1425 435L1426 436L1425 435z"/>
<path style="fill:#9aabc4; stroke:none;" d="M1505 435L1506 436L1505 435M1024 436L1025 437L1024 436M1250 436L1251 437L1250 436M1425 436L1426 437L1425 436M1025 437L1026 438L1025 437M1249 437L1250 438L1249 437M1504 437L1505 438L1504 437M1026 438L1027 439L1026 438M1426 438L1427 439L1426 438M1027 439L1028 440L1027 439z"/>
<path style="fill:#5975b0; stroke:none;" d="M1503 439L1504 440L1503 439M1245 440L1246 441L1245 440z"/>
<path style="fill:#9aabc4; stroke:none;" d="M1427 440L1428 441L1427 440z"/>
<path style="fill:#5975b0; stroke:none;" d="M1030 441L1031 442L1030 441M1244 441L1245 442L1244 441M1502 441L1503 442L1502 441M1031 442L1032 443L1031 442M1243 442L1244 443L1243 442M1428 442L1429 443L1428 442z"/>
<path style="fill:#9aabc4; stroke:none;" d="M1502 442L1503 443L1502 442M1032 443L1033 444L1032 443M1242 443L1243 444L1242 443M1428 443L1429 444L1428 443z"/>
<path style="fill:#5975b0; stroke:none;" d="M1501 443L1502 444L1501 443z"/>
<path style="fill:#9aabc4; stroke:none;" d="M1033 444L1034 445L1033 444M1241 444L1242 445L1241 444z"/>
<path style="fill:#5975b0; stroke:none;" d="M1429 444L1430 445L1429 444z"/>
<path style="fill:#9aabc4; stroke:none;" d="M1501 444L1502 445L1501 444z"/>
<path style="fill:#5975b0; stroke:none;" d="M1239 445L1240 446L1239 445z"/>
<path style="fill:#9aabc4; stroke:none;" d="M1429 445L1430 446L1429 445z"/>
<path style="fill:#5975b0; stroke:none;" d="M1036 446L1037 447L1036 446M1238 446L1239 447L1238 446z"/>
<path style="fill:#9aabc4; stroke:none;" d="M1500 446L1501 447L1500 446M1037 447L1038 448L1037 447M1237 447L1238 448L1237 447M1430 447L1431 448L1430 447M1038 448L1039 449L1038 448z"/>
<path style="fill:#5975b0; stroke:none;" d="M1499 448L1500 449L1499 448M1040 449L1041 450L1040 449M1234 449L1235 450L1234 449z"/>
<path style="fill:#9aabc4; stroke:none;" d="M1431 449L1432 450L1431 449M1041 450L1042 451L1041 450M1233 450L1234 451L1233 450z"/>
<path style="fill:#5975b0; stroke:none;" d="M1498 450L1499 451L1498 450M1043 451L1044 452L1043 451M1231 451L1232 452L1231 451M1432 451L1433 452L1432 451z"/>
<path style="fill:#9aabc4; stroke:none;" d="M1498 451L1499 452L1498 451M1044 452L1045 453L1044 452M1230 452L1231 453L1230 452M1432 452L1433 453L1432 452z"/>
<path style="fill:#5975b0; stroke:none;" d="M1497 452L1498 453L1497 452z"/>
<path style="fill:#9aabc4; stroke:none;" d="M1045 453L1046 454L1045 453z"/>
<path style="fill:#5975b0; stroke:none;" d="M1228 453L1229 454L1228 453M1433 453L1434 454L1433 453z"/>
<path style="fill:#9aabc4; stroke:none;" d="M1497 453L1498 454L1497 453M1047 454L1048 455L1047 454M1227 454L1228 455L1227 454M1433 454L1434 455L1433 454z"/>
<path style="fill:#5975b0; stroke:none;" d="M1049 455L1050 456L1049 455M1225 455L1226 456L1225 455z"/>
<path style="fill:#9aabc4; stroke:none;" d="M1496 455L1497 456L1496 455M1050 456L1051 457L1050 456M1224 456L1225 457L1224 456M1434 456L1435 457L1434 456z"/>
<path style="fill:#5975b0; stroke:none;" d="M1052 457L1053 458L1052 457z"/>
<path style="fill:#9aabc4; stroke:none;" d="M1222 457L1223 458L1222 457z"/>
<path style="fill:#5975b0; stroke:none;" d="M1495 457L1496 458L1495 457z"/>
<path style="fill:#9aabc4; stroke:none;" d="M1053 458L1054 459L1053 458z"/>
<path style="fill:#5975b0; stroke:none;" d="M1054 458L1055 459L1054 458M1220 458L1221 459L1220 458z"/>
<path style="fill:#9aabc4; stroke:none;" d="M1435 458L1436 459L1435 458M1055 459L1056 460L1055 459M1219 459L1220 460L1219 459z"/>
<path style="fill:#5975b0; stroke:none;" d="M1494 459L1495 460L1494 459z"/>
<path style="fill:#9aabc4; stroke:none;" d="M1057 460L1058 461L1057 460M1217 460L1218 461L1217 460z"/>
<path style="fill:#5975b0; stroke:none;" d="M1436 460L1437 461L1436 460z"/>
<path style="fill:#9aabc4; stroke:none;" d="M1494 460L1495 461L1494 460M1059 461L1060 462L1059 461M1215 461L1216 462L1215 461M1436 461L1437 462L1436 461z"/>
<path style="fill:#5975b0; stroke:none;" d="M1493 461L1494 462L1493 461M1061 462L1062 463L1061 462z"/>
<path style="fill:#9aabc4; stroke:none;" d="M1213 462L1214 463L1213 462z"/>
<path style="fill:#5975b0; stroke:none;" d="M1437 462L1438 463L1437 462z"/>
<path style="fill:#9aabc4; stroke:none;" d="M1493 462L1494 463L1493 462z"/>
<path style="fill:#5975b0; stroke:none;" d="M1063 463L1064 464L1063 463z"/>
<path style="fill:#9aabc4; stroke:none;" d="M1211 463L1212 464L1211 463M1437 463L1438 464L1437 463z"/>
<path style="fill:#5975b0; stroke:none;" d="M1065 464L1066 465L1065 464z"/>
<path style="fill:#9aabc4; stroke:none;" d="M1209 464L1210 465L1209 464M1492 464L1493 465L1492 464M1067 465L1068 466L1067 465M1207 465L1208 466L1207 465M1438 465L1439 466L1438 465M1069 466L1070 467L1069 466z"/>
<path style="fill:#5975b0; stroke:none;" d="M1204 466L1205 467L1204 466z"/>
<path style="fill:#9aabc4; stroke:none;" d="M1205 466L1206 467L1205 466z"/>
<path style="fill:#5975b0; stroke:none;" d="M1491 466L1492 467L1491 466z"/>
<path style="fill:#9aabc4; stroke:none;" d="M1071 467L1072 468L1071 467z"/>
<path style="fill:#5975b0; stroke:none;" d="M1072 467L1073 468L1072 467M1202 467L1203 468L1202 467z"/>
<path style="fill:#9aabc4; stroke:none;" d="M1203 467L1204 468L1203 467M1439 467L1440 468L1439 467M1074 468L1075 469L1074 468M1200 468L1201 469L1200 468z"/>
<path style="fill:#5975b0; stroke:none;" d="M1490 468L1491 469L1490 468z"/>
<path style="fill:#9aabc4; stroke:none;" d="M1076 469L1077 470L1076 469z"/>
<path style="fill:#5975b0; stroke:none;" d="M1077 469L1078 470L1077 469M1197 469L1198 470L1197 469z"/>
<path style="fill:#9aabc4; stroke:none;" d="M1198 469L1199 470L1198 469M1440 469L1441 470L1440 469M1490 469L1491 470L1490 469M1079 470L1080 471L1079 470z"/>
<path style="fill:#5975b0; stroke:none;" d="M1194 470L1195 471L1194 470z"/>
<path style="fill:#9aabc4; stroke:none;" d="M1195 470L1196 471L1195 470z"/>
<path style="fill:#5975b0; stroke:none;" d="M1489 470L1490 471L1489 470z"/>
<path style="fill:#9aabc4; stroke:none;" d="M1082 471L1083 472L1082 471z"/>
<path style="fill:#5975b0; stroke:none;" d="M1191 471L1192 472L1191 471z"/>
<path style="fill:#9aabc4; stroke:none;" d="M1192 471L1193 472L1192 471M1441 471L1442 472L1441 471M1489 471L1490 472L1489 471M1085 472L1086 473L1085 472z"/>
<path style="fill:#5975b0; stroke:none;" d="M1188 472L1189 473L1188 472z"/>
<path style="fill:#9aabc4; stroke:none;" d="M1189 472L1190 473L1189 472M1088 473L1089 474L1088 473z"/>
<path style="fill:#5975b0; stroke:none;" d="M1089 473L1090 474L1089 473M1185 473L1186 474L1185 473z"/>
<path style="fill:#9aabc4; stroke:none;" d="M1186 473L1187 474L1186 473z"/>
<path style="fill:#5975b0; stroke:none;" d="M1442 473L1443 474L1442 473z"/>
<path style="fill:#9aabc4; stroke:none;" d="M1488 473L1489 474L1488 473M1091 474L1092 475L1091 474z"/>
<path style="fill:#5975b0; stroke:none;" d="M1092 474L1093 475L1092 474M1181 474L1182 475L1181 474z"/>
<path style="fill:#9aabc4; stroke:none;" d="M1182.67 474.333L1183.33 474.667L1182.67 474.333M1095 475L1096 476L1095 475z"/>
<path style="fill:#5975b0; stroke:none;" d="M1096 475L1097 476L1096 475M1177 475L1178 476L1177 475z"/>
<path style="fill:#9aabc4; stroke:none;" d="M1178.67 475.333L1179.33 475.667L1178.67 475.333z"/>
<path style="fill:#5975b0; stroke:none;" d="M1443 475L1444 476L1443 475M1487 475L1488 476L1487 475z"/>
<path style="fill:#9aabc4; stroke:none;" d="M1099.67 476.333L1100.33 476.667L1099.67 476.333z"/>
<path style="fill:#5975b0; stroke:none;" d="M1101 476L1102 477L1101 476M1173 476L1174 477L1173 476z"/>
<path style="fill:#9aabc4; stroke:none;" d="M1174.67 476.333L1175.33 476.667L1174.67 476.333M1444 476L1444 477L1487 477C1475.77 472.29 1456.22 476 1444 476M1104.67 477.333L1105.33 477.667L1104.67 477.333z"/>
<path style="fill:#5975b0; stroke:none;" d="M1106 477L1107 478L1106 477M1168 477L1169 478L1168 477z"/>
<path style="fill:#9aabc4; stroke:none;" d="M1169.67 477.333L1170.33 477.667L1169.67 477.333M1109 478L1109 479L1112 479L1109 478z"/>
<path style="fill:#5975b0; stroke:none;" d="M1112.67 478.333L1113.33 478.667L1112.67 478.333M1161.67 478.333L1162.33 478.667L1161.67 478.333z"/>
<path style="fill:#9aabc4; stroke:none;" d="M1163 478L1163 479L1166 479L1163 478M1116 479L1116 480L1121 480L1116 479z"/>
<path style="fill:#5975b0; stroke:none;" d="M1121 479L1121 480L1124 480L1121 479M1151 479L1151 480L1154 480L1151 479z"/>
<path style="fill:#9aabc4; stroke:none;" d="M1154 479L1154 480L1158 480L1154 479M1128 480L1128 481L1146 481L1128 480z"/>
</svg>
